<?xml version="1.0" encoding="UTF-8"?>
<svg width="490px" height="490px" viewBox="0 0 490 490" version="1.1" xmlns="http://www.w3.org/2000/svg" xmlns:xlink="http://www.w3.org/1999/xlink">
    <!-- Generator: Sketch 55.2 (78181) - https://sketchapp.com -->
    <title>1</title>
    <desc>Created with Sketch.</desc>
    <g id="1" stroke="none" stroke-width="1" fill="none" fill-rule="evenodd">
        <path d="M430.219697,197.517718 L310.333333,405.515045 L310.333333,177.467681 C297.01256,180.669218 286.222895,183.337125 277.964015,185.471483 C269.705135,187.605841 263.577671,189.873562 259.581439,192.274715 C255.585207,194.675868 252.921093,197.47717 251.589015,200.678707 C250.256938,203.880244 249.590909,208.148896 249.590909,213.484791 L240,213.484791 L240,84.6235741 L249.590909,84.6235741 C249.590909,87.2915216 249.99053,91.1599873 250.789773,96.2290875 C251.589019,101.298188 254.119928,103.8327 258.382576,103.8327 C259.448238,103.8327 262.378764,102.898932 267.174242,101.031369 C271.969721,99.1638056 277.29795,97.1628751 283.159091,95.0285171 C289.020231,92.8941592 294.614872,90.7598332 299.943182,88.6254753 C305.271491,86.4911173 308.73484,85.1571636 310.333333,84.6235741 L310.333333,59.0114068 C310.333333,53.1419225 308.468453,49.4068521 304.738636,47.8060837 C301.00882,46.2053152 297.545471,45.1381522 294.348485,44.6045627 L294.348485,35 L451,35 L451,44.6045627 C445.13886,45.1381522 440.210247,46.2053152 436.214015,47.8060837 C432.217783,49.4068521 430.219697,53.1419225 430.219697,59.0114068 L430.219697,197.517718 Z" id="Combined-Shape" fill="#0c1e40" fill-rule="nonzero"></path>
    </g>
</svg>