<?xml version="1.0" encoding="UTF-8"?>
<svg width="776px" height="490px" viewBox="0 0 776 490" version="1.1" xmlns="http://www.w3.org/2000/svg" xmlns:xlink="http://www.w3.org/1999/xlink">
    <!-- Generator: Sketch 55.2 (78181) - https://sketchapp.com -->
    <title>10</title>
    <desc>Created with Sketch.</desc>
    <g id="10" stroke="none" stroke-width="1" fill="none" fill-rule="evenodd">
        <path d="M730.752325,74.8418932 L675.980676,169.709173 C674.085518,166.292644 672.025294,162.989589 669.8,159.8 C661.79996,148.333276 651.533396,139.133368 639,132.2 C626.466604,125.266632 611.400088,121.8 593.8,121.8 C576.199912,121.8 561.133396,125.266632 548.6,132.2 C536.066604,139.133368 525.80004,148.333276 517.8,159.8 C509.79996,171.266724 503.933352,184.199928 500.2,198.6 C496.466648,213.000072 494.6,227.666592 494.6,242.6 C494.6,257.533408 496.466648,272.199928 500.2,286.6 C503.933352,301.000072 509.79996,313.933276 517.8,325.4 C525.80004,336.866724 536.066604,346.066632 548.6,353 C553.972352,355.97194 559.810127,358.306919 566.11336,360.004947 L518.14841,443.082676 C515.484334,442.172254 512.834864,441.211362 510.2,440.2 C483.799868,430.066616 460.6001,415.400096 440.6,396.2 C420.5999,376.999904 404.866724,354.333464 393.4,328.2 C381.933276,302.066536 376.2,273.533488 376.2,242.6 C376.2,211.666512 381.933276,183.133464 393.4,157 C404.866724,130.866536 420.5999,108.200096 440.6,89 C460.6001,69.799904 483.799868,54.733388 510.2,43.8 C536.600132,32.866612 564.46652,27.4 593.8,27.4 C623.666816,27.4 651.666536,32.866612 677.8,43.8 C697.128385,51.8863652 714.779068,62.2336027 730.752328,74.8418953 Z M123.4,81.8 L133,81.8 C133,84.46668 133.4,88.333308 134.2,93.4 C135.000004,98.466692 137.533312,101 141.8,101 C142.866672,101 145.799976,100.066676 150.6,98.2 C155.400024,96.333324 160.733304,94.333344 166.6,92.2 C172.466696,90.066656 178.06664,87.933344 183.4,85.8 C188.73336,83.666656 192.199992,82.333336 193.8,81.8 L193.8,56.2 C193.8,50.333304 191.933352,46.600008 188.2,45 C184.466648,43.399992 181.000016,42.333336 177.8,41.8 L177.8,32.2 L334.6,32.2 L334.6,41.8 C328.733304,42.333336 323.80002,43.399992 319.8,45 C315.79998,46.600008 313.8,50.333304 313.8,56.2 L313.8,429 C313.8,434.866696 315.79998,438.599992 319.8,440.2 C323.80002,441.800008 328.199976,442.866664 333,443.4 L333,453 L173.8,453 L173.8,443.4 C179.13336,442.866664 183.79998,441.800008 187.8,440.2 C191.80002,438.599992 193.8,434.866696 193.8,429 L193.8,174.6 C180.4666,177.800016 169.666708,180.466656 161.4,182.6 C153.133292,184.733344 147.00002,186.999988 143,189.4 C138.99998,191.800012 136.33334,194.599984 135,197.8 C133.66666,201.000016 133,205.26664 133,210.6 L123.4,210.6 L123.4,81.8 Z" id="Combined-Shape" fill="#0c1e40" fill-rule="nonzero"></path>
    </g>
</svg>