<?xml version="1.0" encoding="UTF-8"?>
<svg width="776px" height="490px" viewBox="0 0 776 490" version="1.1" xmlns="http://www.w3.org/2000/svg" xmlns:xlink="http://www.w3.org/1999/xlink">
    <!-- Generator: Sketch 55.2 (78181) - https://sketchapp.com -->
    <title>11</title>
    <desc>Created with Sketch.</desc>
    <g id="11" stroke="none" stroke-width="1" fill="none" fill-rule="evenodd">
        <path d="M672.6,155.17237 L552.6,363.018467 L552.6,174.6 C539.2666,177.800016 528.466708,180.466656 520.2,182.6 C511.933292,184.733344 505.80002,186.999988 501.8,189.4 C497.79998,191.800012 495.13334,194.599984 493.8,197.8 C492.46666,201.000016 491.8,205.26664 491.8,210.6 L482.2,210.6 L482.2,81.8 L491.8,81.8 C491.8,84.46668 492.2,88.333308 493,93.4 C493.800004,98.466692 496.333312,101 500.6,101 C501.666672,101 504.599976,100.066676 509.4,98.2 C514.200024,96.333324 519.533304,94.333344 525.4,92.2 C531.266696,90.066656 536.86664,87.933344 542.2,85.8 C547.53336,83.666656 550.999992,82.333336 552.6,81.8 L552.6,56.2 C552.6,50.333304 550.733352,46.600008 547,45 C543.266648,43.399992 539.800016,42.333336 536.6,41.8 L536.6,32.2 L693.4,32.2 L693.4,41.8 C687.533304,42.333336 682.60002,43.399992 678.6,45 C674.59998,46.600008 672.6,50.333304 672.6,56.2 L672.6,155.17237 Z M213.4,81.8 L223,81.8 C223,84.46668 223.4,88.333308 224.2,93.4 C225.000004,98.466692 227.533312,101 231.8,101 C232.866672,101 235.799976,100.066676 240.6,98.2 C245.400024,96.333324 250.733304,94.333344 256.6,92.2 C262.466696,90.066656 268.06664,87.933344 273.4,85.8 C278.73336,83.666656 282.199992,82.333336 283.8,81.8 L283.8,56.2 C283.8,50.333304 281.933352,46.600008 278.2,45 C274.466648,43.399992 271.000016,42.333336 267.8,41.8 L267.8,32.2 L424.6,32.2 L424.6,41.8 C418.733304,42.333336 413.80002,43.399992 409.8,45 C405.79998,46.600008 403.8,50.333304 403.8,56.2 L403.8,429 C403.8,434.866696 405.79998,438.599992 409.8,440.2 C413.80002,441.800008 418.199976,442.866664 423,443.4 L423,453 L263.8,453 L263.8,443.4 C269.13336,442.866664 273.79998,441.800008 277.8,440.2 C281.80002,438.599992 283.8,434.866696 283.8,429 L283.8,174.6 C270.4666,177.800016 259.666708,180.466656 251.4,182.6 C243.133292,184.733344 237.00002,186.999988 233,189.4 C228.99998,191.800012 226.33334,194.599984 225,197.8 C223.66666,201.000016 223,205.26664 223,210.6 L213.4,210.6 L213.4,81.8 Z" id="Combined-Shape" fill="#0c1e40" fill-rule="nonzero"></path>
    </g>
</svg>