<?xml version="1.0" encoding="UTF-8"?>
<svg width="776px" height="490px" viewBox="0 0 776 490" version="1.1" xmlns="http://www.w3.org/2000/svg" xmlns:xlink="http://www.w3.org/1999/xlink">
    <!-- Generator: Sketch 55.2 (78181) - https://sketchapp.com -->
    <title>13</title>
    <desc>Created with Sketch.</desc>
    <g id="13" stroke="none" stroke-width="1" fill="none" fill-rule="evenodd">
        <path d="M568.551837,362.138014 L518.042937,449.621995 C505.580705,448.62987 493.699752,447.222541 482.4,445.4 C457.599876,441.39998 435.333432,436.466696 415.6,430.6 C396.93324,424.733304 381.866724,419.400024 370.4,414.6 C358.933276,409.799976 351.86668,407.4 349.2,407.4 C346.53332,407.4 344.133344,407.933328 342,409 C339.866656,410.066672 337.46668,412.466648 334.8,416.2 L325.2,413.8 L379.6,277 L388.4,281 C388.4,283.66668 388.266668,285.933324 388,287.8 C387.733332,289.666676 387.6,291.93332 387.6,294.6 C387.6,302.60004 392.533284,310.59996 402.4,318.6 C412.266716,326.60004 425.066588,333.799968 440.8,340.2 C456.533412,346.600032 474.133236,351.933312 493.6,356.2 C513.066764,360.466688 532.399904,362.6 551.6,362.6 C557.586617,362.6 563.237228,362.446005 568.551837,362.138014 Z M616.897712,278.400501 C606.098684,271.600137 590.999555,268.2 571.6,268.2 L522,268.2 C516.66664,268.2 512.66668,269.53332 510,272.2 C507.33332,274.86668 506,280.733288 506,289.8 L496.4,289.8 L496.4,169 L506,169 C506,175.933368 507.33332,180.599988 510,183 C512.66668,185.400012 516.133312,186.6 520.4,186.6 L574.8,186.6 C586.533392,186.6 596.933288,183.800028 606,178.2 C615.066712,172.599972 619.6,163.666728 619.6,151.4 C619.6,137.533264 614.800048,127.133368 605.2,120.2 C595.599952,113.266632 577.200136,109.266672 550,108.2 C530.266568,108.2 511.600088,110.599976 494,115.4 C476.399912,120.200024 461.200064,125.666636 448.4,131.8 C435.599936,137.933364 425.466704,144.199968 418,150.6 C410.533296,157.000032 406.8,161.799984 406.8,165 C406.8,167.133344 406.933332,168.999992 407.2,170.6 C407.466668,172.200008 407.866664,174.066656 408.4,176.2 L402,182.6 L334,74.6 L342.8,70.6 C346.533352,74.333352 350.533312,76.2 354.8,76.2 C359.066688,76.2 366.266616,73.400028 376.4,67.8 C386.533384,62.199972 399.733252,56.200032 416,49.8 C432.266748,43.399968 451.599888,37.400028 474,31.8 C496.400112,26.199972 521.999856,23.4 550.8,23.4 C573.200112,23.4 595.199892,25.533312 616.8,29.8 C638.400108,34.066688 657.733248,40.999952 674.8,50.6 C691.866752,60.200048 705.599948,72.599924 716,87.8 C718.046763,90.7914223 719.892118,93.9119394 721.536066,97.1615555 L616.897712,278.400501 Z M74.4,77.8 L84,77.8 C84,80.46668 84.4,84.333308 85.2,89.4 C86.000004,94.466692 88.533312,97 92.8,97 C93.866672,97 96.799976,96.066676 101.6,94.2 C106.400024,92.333324 111.733304,90.333344 117.6,88.2 C123.466696,86.066656 129.06664,83.933344 134.4,81.8 C139.73336,79.666656 143.199992,78.333336 144.8,77.8 L144.8,52.2 C144.8,46.333304 142.933352,42.600008 139.2,41 C135.466648,39.399992 132.000016,38.333336 128.8,37.8 L128.8,28.2 L285.6,28.2 L285.6,37.8 C279.733304,38.333336 274.80002,39.399992 270.8,41 C266.79998,42.600008 264.8,46.333304 264.8,52.2 L264.8,425 C264.8,430.866696 266.79998,434.599992 270.8,436.2 C274.80002,437.800008 279.199976,438.866664 284,439.4 L284,449 L124.8,449 L124.8,439.4 C130.13336,438.866664 134.79998,437.800008 138.8,436.2 C142.80002,434.599992 144.8,430.866696 144.8,425 L144.8,170.6 C131.4666,173.800016 120.666708,176.466656 112.4,178.6 C104.133292,180.733344 98.00002,182.999988 94,185.4 C89.99998,187.800012 87.33334,190.599984 86,193.8 C84.66666,197.000016 84,201.26664 84,206.6 L74.4,206.6 L74.4,77.8 Z" id="Combined-Shape" fill="#0c1e40" fill-rule="nonzero"></path>
    </g>
</svg>