<?xml version="1.0" encoding="UTF-8"?>
<svg width="776px" height="490px" viewBox="0 0 776 490" version="1.1" xmlns="http://www.w3.org/2000/svg" xmlns:xlink="http://www.w3.org/1999/xlink">
    <!-- Generator: Sketch 55.2 (78181) - https://sketchapp.com -->
    <title>14</title>
    <desc>Created with Sketch.</desc>
    <g id="14" stroke="none" stroke-width="1" fill="none" fill-rule="evenodd">
        <path d="M706.4,123.377991 L561.356906,374.6 L372.8,374.6 C369.599984,374.6 366.400016,375.799988 363.2,378.2 C359.999984,380.600012 358.4,385.533296 358.4,393 L348.8,393 L348.8,293.8 C360.000056,279.933264 372.666596,264.33342 386.8,247 C400.933404,229.66658 415.33326,211.800092 430,193.4 C444.66674,174.999908 459.066596,157.13342 473.2,139.8 C487.333404,122.46658 499.866612,106.866736 510.8,93 C521.733388,79.133264 530.5333,67.800044 537.2,59 C543.8667,50.199956 547.2,45.266672 547.2,44.2 C547.2,41.53332 545.86668,39.933336 543.2,39.4 C540.53332,38.866664 537.066688,38.333336 532.8,37.8 L532.8,28.2 L723.2,28.2 L723.2,37.8 C717.86664,38.333336 713.733348,38.866664 710.8,39.4 C707.866652,39.933336 706.4,41.53332 706.4,44.2 L706.4,123.377991 Z M104.4,77.8 L114,77.8 C114,80.46668 114.4,84.333308 115.2,89.4 C116.000004,94.466692 118.533312,97 122.8,97 C123.866672,97 126.799976,96.066676 131.6,94.2 C136.400024,92.333324 141.733304,90.333344 147.6,88.2 C153.466696,86.066656 159.06664,83.933344 164.4,81.8 C169.73336,79.666656 173.199992,78.333336 174.8,77.8 L174.8,52.2 C174.8,46.333304 172.933352,42.600008 169.2,41 C165.466648,39.399992 162.000016,38.333336 158.8,37.8 L158.8,28.2 L315.6,28.2 L315.6,37.8 C309.733304,38.333336 304.80002,39.399992 300.8,41 C296.79998,42.600008 294.8,46.333304 294.8,52.2 L294.8,425 C294.8,430.866696 296.79998,434.599992 300.8,436.2 C304.80002,437.800008 309.199976,438.866664 314,439.4 L314,449 L154.8,449 L154.8,439.4 C160.13336,438.866664 164.79998,437.800008 168.8,436.2 C172.80002,434.599992 174.8,430.866696 174.8,425 L174.8,170.6 C161.4666,173.800016 150.666708,176.466656 142.4,178.6 C134.133292,180.733344 128.00002,182.999988 124,185.4 C119.99998,187.800012 117.33334,190.599984 116,193.8 C114.66666,197.000016 114,201.26664 114,206.6 L104.4,206.6 L104.4,77.8 Z M599.2,108.2 L597.6,108.2 L445.6,294.6 L599.2,294.6 L599.2,108.2 Z" id="Combined-Shape" fill="#0c1e40" fill-rule="nonzero"></path>
    </g>
</svg>