<?xml version="1.0" encoding="UTF-8"?>
<svg width="776px" height="490px" viewBox="0 0 776 490" version="1.1" xmlns="http://www.w3.org/2000/svg" xmlns:xlink="http://www.w3.org/1999/xlink">
    <!-- Generator: Sketch 55.2 (78181) - https://sketchapp.com -->
    <title>15</title>
    <desc>Created with Sketch.</desc>
    <g id="15" stroke="none" stroke-width="1" fill="none" fill-rule="evenodd">
        <path d="M570.524269,358.72166 L517.403153,450.730132 C505.712318,450.14144 494.711304,449.164731 484.4,447.8 C466.266576,445.399988 450.000072,442.20002 435.6,438.2 C421.199928,434.19998 408.933384,430.066688 398.8,425.8 C388.666616,421.533312 380.400032,418.06668 374,415.4 C370.266648,413.799992 366.800016,412.33334 363.6,411 C360.399984,409.66666 358.000008,409 356.4,409 C353.73332,409 349.73336,410.866648 344.4,414.6 L334.8,409.8 L414.8,289 L423.6,296.2 C421.999992,299.933352 421.2,303.933312 421.2,308.2 C421.2,311.933352 423.999972,316.733304 429.6,322.6 C435.200028,328.466696 443.599944,334.199972 454.8,339.8 C466.000056,345.400028 479.866584,350.066648 496.4,353.8 C512.933416,357.533352 532.133224,359.4 554,359.4 C559.746119,359.4 565.254207,359.173887 570.524269,358.72166 Z M625.150339,264.106533 C624.016943,263.189429 622.833496,262.287252 621.6,261.4 C606.399924,250.466612 584.13348,245 554.8,245 C531.866552,245 516.000044,247.266644 507.2,251.8 C498.399956,256.333356 494,260.999976 494,265.8 C494,267.400008 494.533328,268.86666 495.6,270.2 C496.666672,271.53334 497.999992,273.53332 499.6,276.2 L494.8,285 L355.6,201 L361.2,193 C362.266672,194.066672 363.866656,194.6 366,194.6 L370.8,194.6 C375.066688,194.6 377.2,191.93336 377.2,186.6 L377.2,52.2 C377.2,46.333304 375.333352,42.600008 371.6,41 C367.866648,39.399992 363.866688,38.333336 359.6,37.8 L359.6,28.2 L713.2,28.2 C716.400016,28.2 719.599984,27.000012 722.8,24.6 C726.000016,22.199988 727.6,16.733376 727.6,8.2 L737.2,8.2 L737.2,70.0308263 L712.391736,113 L481.2,113 L481.2,182.6 C499.86676,176.733304 517.999912,172.600012 535.6,170.2 C553.200088,167.799988 571.33324,166.6 590,166.6 C612.400112,166.6 633.999896,169.133308 654.8,174.2 C661.359431,175.79781 667.680154,177.700587 673.762189,179.908338 L625.150339,264.106533 Z M94.4,77.8 L104,77.8 C104,80.46668 104.4,84.333308 105.2,89.4 C106.000004,94.466692 108.533312,97 112.8,97 C113.866672,97 116.799976,96.066676 121.6,94.2 C126.400024,92.333324 131.733304,90.333344 137.6,88.2 C143.466696,86.066656 149.06664,83.933344 154.4,81.8 C159.73336,79.666656 163.199992,78.333336 164.8,77.8 L164.8,52.2 C164.8,46.333304 162.933352,42.600008 159.2,41 C155.466648,39.399992 152.000016,38.333336 148.8,37.8 L148.8,28.2 L305.6,28.2 L305.6,37.8 C299.733304,38.333336 294.80002,39.399992 290.8,41 C286.79998,42.600008 284.8,46.333304 284.8,52.2 L284.8,425 C284.8,430.866696 286.79998,434.599992 290.8,436.2 C294.80002,437.800008 299.199976,438.866664 304,439.4 L304,449 L144.8,449 L144.8,439.4 C150.13336,438.866664 154.79998,437.800008 158.8,436.2 C162.80002,434.599992 164.8,430.866696 164.8,425 L164.8,170.6 C151.4666,173.800016 140.666708,176.466656 132.4,178.6 C124.133292,180.733344 118.00002,182.999988 114,185.4 C109.99998,187.800012 107.33334,190.599984 106,193.8 C104.66666,197.000016 104,201.26664 104,206.6 L94.4,206.6 L94.4,77.8 Z" id="Combined-Shape" fill="#0c1e40" fill-rule="nonzero"></path>
    </g>
</svg>