<?xml version="1.0" encoding="UTF-8"?>
<svg width="490px" height="490px" viewBox="0 0 490 490" version="1.1" xmlns="http://www.w3.org/2000/svg" xmlns:xlink="http://www.w3.org/1999/xlink">
    <!-- Generator: Sketch 55.2 (78181) - https://sketchapp.com -->
    <title>2</title>
    <desc>Created with Sketch.</desc>
    <g id="2" stroke="none" stroke-width="1" fill="none" fill-rule="evenodd">
        <path d="M238.195707,449.6 L99.4,449.6 C94.06664,449.6 90.06668,450.399992 87.4,452 C84.73332,453.600008 83.4,458.133296 83.4,465.6 L73.8,465.6 C72.733328,442.133216 75.933296,420.533432 83.4,400.8 C90.866704,381.066568 101.2666,362.933416 114.6,346.4 C127.9334,329.866584 143.533244,314.666736 161.4,300.8 C179.266756,286.933264 197.933236,274.133392 217.4,262.4 C236.866764,250.666608 256.466568,239.46672 276.2,228.8 C295.933432,218.13328 314.599912,207.46672 332.2,196.8 C340.20004,191.999976 346.066648,186.93336 349.8,181.6 C353.533352,176.26664 355.4,169.066712 355.4,160 C355.4,149.866616 351.000044,140.400044 342.2,131.6 C333.399956,122.799956 318.866768,118.4 298.6,118.4 C279.93324,118.4 262.466748,121.333304 246.2,127.2 C229.933252,133.066696 215.666728,139.99996 203.4,148 C191.133272,156.00004 181.533368,164.133292 174.6,172.4 C167.666632,180.666708 164.2,187.46664 164.2,192.8 C164.2,196.000016 165.266656,199.999976 167.4,204.8 L157.8,212 L73,92.8 L81.8,86.4 C83.400008,88 85.399988,89.46666 87.8,90.8 C90.200012,92.13334 92.999984,92.8 96.2,92.8 C100.466688,92.8 107.533284,89.200036 117.4,82 C127.266716,74.799964 140.466584,66.933376 157,58.4 C174.066752,49.333288 194.066552,41.333368 217,34.4 C239.933448,27.466632 266.599848,24 297,24 C319.933448,24 341.799896,27.466632 362.6,34.4 C383.400104,41.333368 401.79992,50.79994 417.8,62.8 C428.538925,70.8541938 437.836215,79.9894523 445.691984,90.205906 L319.222344,309.257748 C305.980545,315.421668 293.239844,321.669046 281,328 C265.533256,336.00004 252.46672,345.066616 241.8,355.2 L292.697573,355.2 L238.195707,449.6 Z" id="Combined-Shape" fill="#0c1e40" fill-rule="nonzero"></path>
    </g>
</svg>