<?xml version="1.0" encoding="UTF-8"?>
<svg width="490px" height="490px" viewBox="0 0 490 490" version="1.1" xmlns="http://www.w3.org/2000/svg" xmlns:xlink="http://www.w3.org/1999/xlink">
    <!-- Generator: Sketch 55.2 (78181) - https://sketchapp.com -->
    <title>3</title>
    <desc>Created with Sketch.</desc>
    <g id="3" stroke="none" stroke-width="1" fill="none" fill-rule="evenodd">
        <path d="M243.62901,366.595153 L194.149576,452.296048 C186.745712,451.488337 179.562527,450.522988 172.6,449.4 C147.799876,445.39998 125.533432,440.466696 105.8,434.6 C87.13324,428.733304 72.066724,423.400024 60.6,418.6 C49.133276,413.799976 42.06668,411.4 39.4,411.4 C36.73332,411.4 34.333344,411.933328 32.2,413 C30.066656,414.066672 27.66668,416.466648 25,420.2 L15.4,417.8 L69.8,281 L78.6,285 C78.6,287.66668 78.466668,289.933324 78.2,291.8 C77.933332,293.666676 77.8,295.93332 77.8,298.6 C77.8,306.60004 82.733284,314.59996 92.6,322.6 C102.466716,330.60004 115.266588,337.799968 131,344.2 C146.733412,350.600032 164.333236,355.933312 183.8,360.2 C203.266764,364.466688 222.599904,366.6 241.8,366.6 C242.413205,366.6 243.022885,366.598384 243.629039,366.595153 Z M295.405672,276.915343 C286.191659,273.771772 274.989802,272.2 261.8,272.2 L212.2,272.2 C206.86664,272.2 202.86668,273.53332 200.2,276.2 C197.53332,278.86668 196.2,284.733288 196.2,293.8 L186.6,293.8 L186.6,173 L196.2,173 C196.2,179.933368 197.53332,184.599988 200.2,187 C202.86668,189.400012 206.333312,190.6 210.6,190.6 L265,190.6 C276.733392,190.6 287.133288,187.800028 296.2,182.2 C305.266712,176.599972 309.8,167.666728 309.8,155.4 C309.8,141.533264 305.000048,131.133368 295.4,124.2 C285.799952,117.266632 267.400136,113.266672 240.2,112.2 C220.466568,112.2 201.800088,114.599976 184.2,119.4 C166.599912,124.200024 151.400064,129.666636 138.6,135.8 C125.799936,141.933364 115.666704,148.199968 108.2,154.6 C100.733296,161.000032 97,165.799984 97,169 C97,171.133344 97.133332,172.999992 97.4,174.6 C97.666668,176.200008 98.066664,178.066656 98.6,180.2 L92.2,186.6 L24.2,78.6 L33,74.6 C36.733352,78.333352 40.733312,80.2 45,80.2 C49.266688,80.2 56.466616,77.400028 66.6,71.8 C76.733384,66.199972 89.933252,60.200032 106.2,53.8 C122.466748,47.399968 141.799888,41.400028 164.2,35.8 C186.600112,30.199972 212.199856,27.4 241,27.4 C263.400112,27.4 285.399892,29.533312 307,33.8 C328.600108,38.066688 347.933248,44.999952 365,54.6 C380.911414,63.5501703 393.925327,74.933929 404.042073,88.7515776 L295.405672,276.915343 Z" id="Combined-Shape" fill="#0c1e40" fill-rule="nonzero"></path>
    </g>
</svg>