<?xml version="1.0" encoding="UTF-8"?>
<svg width="490px" height="490px" viewBox="0 0 490 490" version="1.1" xmlns="http://www.w3.org/2000/svg" xmlns:xlink="http://www.w3.org/1999/xlink">
    <!-- Generator: Sketch 55.2 (78181) - https://sketchapp.com -->
    <title>4</title>
    <desc>Created with Sketch.</desc>
    <g id="4" stroke="none" stroke-width="1" fill="none" fill-rule="evenodd">
        <path d="M386.6,115.498033 L234.698009,378.6 L53,378.6 C49.799984,378.6 46.600016,379.799988 43.4,382.2 C40.199984,384.600012 38.6,389.533296 38.6,397 L29,397 L29,297.8 C40.200056,283.933264 52.866596,268.33342 67,251 C81.133404,233.66658 95.53326,215.800092 110.2,197.4 C124.86674,178.999908 139.266596,161.13342 153.4,143.8 C167.533404,126.46658 180.066612,110.866736 191,97 C201.933388,83.133264 210.7333,71.800044 217.4,63 C224.0667,54.199956 227.4,49.266672 227.4,48.2 C227.4,45.53332 226.06668,43.933336 223.4,43.4 C220.73332,42.866664 217.266688,42.333336 213,41.8 L213,32.2 L403.4,32.2 L403.4,41.8 C398.06664,42.333336 393.933348,42.866664 391,43.4 C388.066652,43.933336 386.6,45.53332 386.6,48.2 L386.6,115.498033 Z M279.4,112.2 L277.8,112.2 L125.8,298.6 L279.4,298.6 L279.4,112.2 Z" id="Combined-Shape" fill="#0c1e40" fill-rule="nonzero"></path>
    </g>
</svg>