<?xml version="1.0" encoding="UTF-8"?>
<svg width="490px" height="490px" viewBox="0 0 490 490" version="1.1" xmlns="http://www.w3.org/2000/svg" xmlns:xlink="http://www.w3.org/1999/xlink">
    <!-- Generator: Sketch 55.2 (78181) - https://sketchapp.com -->
    <title>5</title>
    <desc>Created with Sketch.</desc>
    <g id="5" stroke="none" stroke-width="1" fill="none" fill-rule="evenodd">
        <path d="M228.353883,363.052449 L176.941264,452.101719 C176.156931,452.003346 175.37651,451.902773 174.6,451.8 C156.466576,449.399988 140.200072,446.20002 125.8,442.2 C111.399928,438.19998 99.133384,434.066688 89,429.8 C78.866616,425.533312 70.600032,422.06668 64.2,419.4 C60.466648,417.799992 57.000016,416.33334 53.8,415 C50.599984,413.66666 48.200008,413 46.6,413 C43.93332,413 39.93336,414.866648 34.6,418.6 L25,413.8 L105,293 L113.8,300.2 C112.199992,303.933352 111.4,307.933312 111.4,312.2 C111.4,315.933352 114.199972,320.733304 119.8,326.6 C125.400028,332.466696 133.799944,338.199972 145,343.8 C156.200056,349.400028 170.066584,354.066648 186.6,357.8 C199.014532,360.603281 212.932412,362.35409 228.353883,363.052449 Z M290.696493,255.071882 C278.080715,251.023948 262.8486,249 245,249 C222.066552,249 206.200044,251.266644 197.4,255.8 C188.599956,260.333356 184.2,264.999976 184.2,269.8 C184.2,271.400008 184.733328,272.86666 185.8,274.2 C186.866672,275.53334 188.199992,277.53332 189.8,280.2 L185,289 L45.8,205 L51.4,197 C52.466672,198.066672 54.066656,198.6 56.2,198.6 L61,198.6 C65.266688,198.6 67.4,195.93336 67.4,190.6 L67.4,56.2 C67.4,50.333304 65.533352,46.600008 61.8,45 C58.066648,43.399992 54.066688,42.333336 49.8,41.8 L49.8,32.2 L403.4,32.2 C406.600016,32.2 409.799984,31.000012 413,28.6 C416.200016,26.199988 417.8,20.733376 417.8,12.2 L427.4,12.2 L427.4,18.2944618 L370.412331,117 L171.4,117 L171.4,186.6 C190.06676,180.733304 208.199912,176.600012 225.8,174.2 C243.400088,171.799988 261.53324,170.6 280.2,170.6 C299.465417,170.6 318.13883,172.473891 336.220652,176.221723 L290.696493,255.071882 Z" id="Combined-Shape" fill="#0c1e40" fill-rule="nonzero"></path>
    </g>
</svg>