<?xml version="1.0" encoding="UTF-8"?>
<svg width="490px" height="490px" viewBox="0 0 490 490" version="1.1" xmlns="http://www.w3.org/2000/svg" xmlns:xlink="http://www.w3.org/1999/xlink">
    <!-- Generator: Sketch 55.2 (78181) - https://sketchapp.com -->
    <title>6</title>
    <desc>Created with Sketch.</desc>
    <g id="6" stroke="none" stroke-width="1" fill="none" fill-rule="evenodd">
        <path d="M289.904885,256.442988 C280.027253,254.147657 269.325647,253 257.8,253 C233.266544,253 212.466752,258.199948 195.4,268.6 C178.333248,279.000052 169.8,293.53324 169.8,312.2 C169.8,330.86676 178.333248,345.133284 195.4,355 C204.604617,360.321419 214.89509,364.207815 226.271518,366.659212 L180.143237,446.555738 C176.929089,445.816795 173.74801,445.03155 170.6,444.2 C142.333192,436.733296 118.2001,424.466752 98.2,407.4 C78.1999,390.333248 62.600056,368.600132 51.4,342.2 C40.199944,315.799868 34.6,284.200184 34.6,247.4 C34.6,214.333168 40.866604,184.200136 53.4,157 C65.933396,129.799864 82.86656,106.600096 104.2,87.4 C125.53344,68.199904 150.333192,53.400052 178.6,43 C206.866808,32.599948 236.99984,27.4 269,27.4 C294.066792,27.4 315.533244,28.599988 333.4,31 C351.266756,33.400012 366.19994,36.199984 378.2,39.4 C390.20006,42.600016 399.666632,45.399988 406.6,47.8 C407.693487,48.1785148 408.747175,48.5271807 409.761062,48.8459978 L366.504519,123.768529 C363.50952,121.932974 360.074682,120.076799 356.2,118.2 C339.133248,109.933292 313.533504,105.8 279.4,105.8 C261.266576,105.8 244.20008,108.066644 228.2,112.6 C212.19992,117.133356 198.333392,123.933288 186.6,133 C174.866608,142.066712 165.533368,153.799928 158.6,168.2 C151.666632,182.600072 148.2,199.399904 148.2,218.6 C169.000104,200.999912 189.666564,188.733368 210.2,181.8 C230.733436,174.866632 254.599864,171.4 281.8,171.4 C299.66104,171.4 317.423535,173.66123 335.087878,178.183747 L289.904885,256.442988 Z" id="Combined-Shape" fill="#0c1e40" fill-rule="nonzero"></path>
    </g>
</svg>