<?xml version="1.0" encoding="UTF-8"?>
<svg width="490px" height="490px" viewBox="0 0 490 490" version="1.1" xmlns="http://www.w3.org/2000/svg" xmlns:xlink="http://www.w3.org/1999/xlink">
    <!-- Generator: Sketch 55.2 (78181) - https://sketchapp.com -->
    <title>8</title>
    <desc>Created with Sketch.</desc>
    <g id="8" stroke="none" stroke-width="1" fill="none" fill-rule="evenodd">
        <path d="M219.870303,377.746441 L177.618312,450.929036 C153.570906,447.968384 131.098356,441.858765 110.2,432.6 C89.133228,423.26662 71.533404,410.333416 57.4,393.8 C43.266596,377.266584 36.2,355.933464 36.2,329.8 C36.2,316.999936 38.19998,305.400052 42.2,295 C46.20002,284.599948 51.666632,275.266708 58.6,267 C65.533368,258.733292 73.533288,251.400032 82.6,245 C91.666712,238.599968 101.266616,233.000024 111.4,228.2 C97.533264,221.266632 84.733392,211.000068 73,197.4 C61.266608,183.799932 55.4,166.33344 55.4,145 C55.4,119.933208 62.333264,99.800076 76.2,84.6 C90.066736,69.399924 106.9999,57.533376 127,49 C147.0001,40.466624 167.799892,34.733348 189.4,31.8 C211.000108,28.866652 229.533256,27.4 245,27.4 C260.466744,27.4 278.999892,28.866652 300.6,31.8 C322.200108,34.733348 342.9999,40.466624 363,49 C375.861543,54.4875917 387.454773,61.353597 397.779825,69.5981106 L277.442566,278.028357 C275.969503,277.795534 274.488648,277.586081 273,277.4 C262.33328,276.06666 253.00004,275.4 245,275.4 C236.99996,275.4 227.66672,276.06666 217,277.4 C206.33328,278.73334 196.066716,281.266648 186.2,285 C176.333284,288.733352 168.0667,294.066632 161.4,301 C154.7333,307.933368 151.4,316.73328 151.4,327.4 C151.4,338.06672 154.7333,346.866632 161.4,353.8 C168.0667,360.733368 176.333284,366.066648 186.2,369.8 C196.066716,373.533352 206.33328,376.06666 217,377.4 C217.967744,377.520968 218.924511,377.636448 219.870303,377.746441 Z M245,193.8 C252.466704,193.8 260.466624,193.13334 269,191.8 C277.533376,190.46666 285.533296,188.200016 293,185 C300.466704,181.799984 306.733308,177.266696 311.8,171.4 C316.866692,165.533304 319.4,158.333376 319.4,149.8 C319.4,140.733288 316.866692,133.400028 311.8,127.8 C306.733308,122.199972 300.466704,117.800016 293,114.6 C285.533296,111.399984 277.533376,109.13334 269,107.8 C260.466624,106.46666 252.466704,105.8 245,105.8 C238.066632,105.8 230.200044,106.46666 221.4,107.8 C212.599956,109.13334 204.466704,111.399984 197,114.6 C189.533296,117.800016 183.266692,122.199972 178.2,127.8 C173.133308,133.400028 170.6,140.733288 170.6,149.8 C170.6,158.333376 173.133308,165.533304 178.2,171.4 C183.266692,177.266696 189.533296,181.799984 197,185 C204.466704,188.200016 212.599956,190.46666 221.4,191.8 C230.200044,193.13334 238.066632,193.8 245,193.8 Z" id="Combined-Shape" fill="#0c1e40" fill-rule="nonzero"></path>
    </g>
</svg>