<?xml version="1.0" encoding="UTF-8"?>
<svg width="490px" height="490px" viewBox="0 0 490 490" version="1.1" xmlns="http://www.w3.org/2000/svg" xmlns:xlink="http://www.w3.org/1999/xlink">
    <!-- Generator: Sketch 55.2 (78181) - https://sketchapp.com -->
    <title>9</title>
    <desc>Created with Sketch.</desc>
    <g id="9" stroke="none" stroke-width="1" fill="none" fill-rule="evenodd">
        <path d="M219.069862,379.132846 L175.618865,454.392181 C167.345518,453.866838 159.405913,453.136112 151.8,452.2 C134.46658,450.066656 119.400064,447.266684 106.6,443.8 C93.799936,440.333316 83.666704,437.26668 76.2,434.6 C68.733296,431.93332 64.200008,430.6 62.6,430.6 C56.199968,430.6 50.066696,433.533304 44.2,439.4 L34.6,435.4 L97.8,328.2 L105.8,332.2 L105.8,339.4 C105.8,346.333368 108.733304,352.333308 114.6,357.4 C120.466696,362.466692 128.199952,366.599984 137.8,369.8 C147.400048,373.000016 158.466604,375.4 171,377 C183.533396,378.600008 196.199936,379.4 209,379.4 C212.382821,379.4 215.73944,379.310949 219.069862,379.132846 Z M264.565111,300.332762 C243.332341,306.110947 220.544159,309 196.2,309 C175.399896,309 155.66676,305.800032 137,299.4 C118.33324,292.999968 101.800072,283.666728 87.4,271.4 C72.999928,259.133272 61.533376,244.33342 53,227 C44.466624,209.66658 40.2,190.066776 40.2,168.2 C40.2,142.599872 46.19994,120.866756 58.2,103 C70.20006,85.133244 85.399908,70.600056 103.8,59.4 C122.200092,48.199944 142.73322,40.066692 165.4,35 C188.06678,29.933308 210.06656,27.4 231.4,27.4 C265.000168,27.4 295.399864,31.666624 322.6,40.2 C349.723747,48.7094107 373.002147,61.5939711 392.435896,78.8540658 L264.565111,300.332762 Z M232.2,109 C224.733296,109 215.933384,109.933324 205.8,111.8 C195.666616,113.666676 186.066712,116.733312 177,121 C167.933288,125.266688 160.200032,131.266628 153.8,139 C147.399968,146.733372 144.2,156.466608 144.2,168.2 C144.2,179.933392 147.399968,189.666628 153.8,197.4 C160.200032,205.133372 167.933288,211.133312 177,215.4 C186.066712,219.666688 195.666616,222.733324 205.8,224.6 C215.933384,226.466676 224.733296,227.4 232.2,227.4 C239.666704,227.4 248.466616,226.466676 258.6,224.6 C268.733384,222.733324 278.333288,219.666688 287.4,215.4 C296.466712,211.133312 304.199968,205.133372 310.6,197.4 C317.000032,189.666628 320.2,179.933392 320.2,168.2 C320.2,156.466608 317.000032,146.733372 310.6,139 C304.199968,131.266628 296.466712,125.266688 287.4,121 C278.333288,116.733312 268.733384,113.666676 258.6,111.8 C248.466616,109.933324 239.666704,109 232.2,109 Z" id="Combined-Shape" fill="#0c1e40" fill-rule="nonzero"></path>
    </g>
</svg>