<?xml version="1.0" encoding="UTF-8"?>
<svg width="3280px" height="332px" viewBox="0 0 3280 332" version="1.1" xmlns="http://www.w3.org/2000/svg" xmlns:xlink="http://www.w3.org/1999/xlink">
    <!-- Generator: Sketch 55.2 (78181) - https://sketchapp.com -->
    <title>Artboard</title>
    <desc>Created with Sketch.</desc>
    <defs>
        <linearGradient x1="78.7536505%" y1="49.8073738%" x2="45.2507803%" y2="50.3331945%" id="linearGradient-1">
            <stop stop-color="#01A4B7" offset="0%"></stop>
            <stop stop-color="#74066F" offset="100%"></stop>
        </linearGradient>
        <linearGradient x1="50%" y1="0%" x2="50%" y2="100%" id="linearGradient-2">
            <stop stop-color="#09108C" stop-opacity="0.0817854021" offset="0%"></stop>
            <stop stop-color="#960BAC" offset="100%"></stop>
        </linearGradient>
        <linearGradient x1="50%" y1="0%" x2="50%" y2="100%" id="linearGradient-3">
            <stop stop-color="#037DA9" stop-opacity="0.479676573" offset="0%"></stop>
            <stop stop-color="#4C2082" offset="100%"></stop>
        </linearGradient>
    </defs>
    <g id="Page-1" stroke="none" stroke-width="1" fill="none" fill-rule="evenodd">
        <g id="bottom-patern" transform="translate(-28.000000, 18.000000)">
            <polygon id="Path-5" fill="url(#linearGradient-1)" opacity="0.712681362" points="260.04443 0.328991135 497.829462 156.311313 1002.15914 96.748538 1402.4086 249.457533 1753.17966 76.1915691 2006.51275 176.284536 2822.2897 76.1915691 3332 176.284536 3332 272.328991 0 272.328991"></polygon>
            <polygon id="Path-6" fill="url(#linearGradient-2)" points="0 70.331035 175.045161 211.433542 379.566495 0.328991135 897.746237 248.149099 1279.56989 19.4137589 1648.59785 248.149099 1946.72857 70.331035 2162.98495 151.105052 2436.74654 28.2027609 2612.5554 248.149099 2991.42326 70.331035 3332 270.904357 3332 272.328991 0 270.904357"></polygon>
            <path d="M0,146.055204 C0,146.055204 29.0035842,106.813133 87.0107527,28.3289911 L878.616093,196.864073 L1557.34404,65.8165874 L1963.07482,249.736535 L2578.41665,65.8165874 L3072.69126,211.465029 L3332,179.695352 L3332,272.328991 L0,272.328991 C0,188.146467 0,146.055204 0,146.055204 Z" id="Path-7" fill="url(#linearGradient-3)"></path>
            <polygon id="Path-8" fill="#0C1E40" points="0 145.328991 233.905376 271.816468 792.949462 145.328991 1662.87896 271.816468 2696.12928 145.328991 3332 221.538178 3332 434.328991 1328.86537 434.328991 0 434.328991"></polygon>
        </g>
    </g>
</svg>