<svg width="485px" height="485px" viewBox="0 0 485 485" version="1.1" xmlns="http://www.w3.org/2000/svg" xmlns:xlink="http://www.w3.org/1999/xlink">
    <g id="logo-jotb" stroke="none" stroke-width="1" fill="none" fill-rule="evenodd">
        <g id="logo-1" transform="translate(34.000000, 28.000000)">
            <path d="M346,94.6704021 L346,161.751858 C346,163.966374 345.264918,166.118249 343.910059,167.869943 L330.050848,185.788487 C328.157067,188.236952 325.236171,189.670402 322.140789,189.670402 L237.467769,189.670402 C233.345738,189.670402 229.646043,187.141127 228.149814,183.300237 L209,134.141771 L189.850186,183.300237 C188.353957,187.141127 184.654262,189.670402 180.532231,189.670402 L95.8592112,189.670402 C92.7638295,189.670402 89.8429331,188.236952 87.9491522,185.788487 L74.089941,167.869943 C72.7350816,166.118249 72,163.966374 72,161.751858 L72,94.6704021 L72,84.6704021 C72,83.6826308 72.28643,82.7617589 72.7807631,81.9863132 C72.4812847,81.46235 72.4214899,80.8094487 72.6754943,80.2110519 L103.933985,6.57066359 C104.020628,6.36654348 104.137198,6.18428294 104.276413,6.0268237 C104.956246,4.07278539 106.814351,2.67040207 109,2.67040207 L144,2.67040207 C146.761424,2.67040207 149,4.90897832 149,7.67040207 L149,17.6704021 C149,20.4318258 146.761424,22.6704021 144,22.6704021 L118.827259,22.6704021 L94.632194,79.6704021 L323.512064,79.6704021 L294.304739,10.862257 C293.225765,8.32035308 294.411704,5.38505135 296.953608,4.30607713 L306.158657,0.398765845 C308.900561,-0.680208373 311.635862,0.505730506 312.714836,3.04763447 L345.14552,79.4495373 C345.553772,80.4113185 345.63777,81.4294202 345.44675,82.3819767 C345.800351,83.0676896 346,83.8457305 346,84.6704021 L346,94.6704021 Z M92,98.9768278 L92,151.350713 C92,153.353331 92.667922,155.298745 93.8980429,156.879023 L102.948049,168.505137 C104.653255,170.695735 107.273958,171.976828 110.050006,171.976828 L168.959229,171.976828 C172.66193,171.976828 175.986785,169.709097 177.338284,166.261861 L194.689527,122.004464 C194.894693,121.481153 195,120.924038 195,120.361947 L195,98.9768278 L92,98.9768278 Z M327,98.9768278 L224,98.9768278 L224,120.361947 C224,120.924038 224.105307,121.481153 224.310473,122.004464 L241.661716,166.261861 C243.013215,169.709097 246.33807,171.976828 250.040771,171.976828 L308.949994,171.976828 C311.726042,171.976828 314.346745,170.695735 316.051951,168.505137 L325.101957,156.879023 C326.332078,155.298745 327,153.353331 327,151.350713 L327,98.9768278 Z" id="logo-thin-copy" fill="#ffeae9"></path>
            <path d="M109.99243,337.689773 C110.023754,337.691459 110.056208,337.693329 110.089767,337.695386 C110.049778,337.692933 110.010066,337.689552 109.970651,337.685267 L109.99243,337.689773 Z M109.970651,337.685267 C109.808659,337.667654 109.651685,337.634757 109.501092,337.588117 L109.970651,337.685267 Z M109.501092,337.588117 C108.425526,337.255003 107.675467,336.220838 107.747441,335.047063 C107.754726,334.928255 107.770487,334.810118 107.794604,334.693555 L107.290362,337.130724 L109.501092,337.588117 Z M104.113835,330.956124 C106.274762,330.770798 108.107404,330.677734 109.619141,330.677734 C109.890146,330.677734 110.188114,330.688269 110.518323,330.708517 C112.998861,330.860714 114.886423,332.994913 114.734318,335.475487 C114.721205,335.68934 114.692836,335.901983 114.649427,336.111794 L113.567761,341.339844 L110.717773,341.339844 C107.331102,341.339844 103.76354,341.566578 100.015465,342.021287 C93.4865288,358.03558 85.6558663,372.913644 76.5231639,386.652405 C66.9810073,401.007127 57.211477,412.255627 47.1887,420.39127 C36.8934423,428.74809 27.28269,433.014648 18.3105469,433.014648 C11.7015699,433.014648 6.30222793,430.953082 2.34832974,426.801488 C-1.57036997,422.686854 -3.5,417.139167 -3.5,410.349609 C-3.5,405.258349 -2.16199195,399.794816 0.471732018,393.956728 C3.04262264,388.257921 6.62129759,382.591685 11.1989919,376.95434 C15.757781,371.340275 21.0677635,366.135649 27.0850909,361.372396 C32.5237521,356.937795 38.2171556,353.02358 44.1642574,349.631219 C50.0965442,346.247309 56.4596375,343.243094 63.2523666,340.617684 C69.4742178,338.212919 75.9892971,336.108279 82.7973359,334.303232 L82.9991458,333.755462 C89.7703166,313.273342 94.4388841,295.076704 97.0031397,279.211531 C98.6881269,268.058521 99.5273438,259.026949 99.5273438,252.146484 C99.5273438,246.803591 98.9041114,242.75258 97.7372495,240.041342 C96.8568574,237.995725 96.0717934,237.335938 95.2148438,237.335938 C93.0689882,237.335938 90.4312569,239.200541 87.4412292,243.379784 C84.1068233,248.040374 81.3389339,254.075911 79.1642821,261.493026 C76.9776058,268.951155 75.8876953,276.249662 75.8876953,283.396484 C75.8876953,289.742363 77.7431936,297.584079 81.4986915,306.875955 C83.3191802,311.380137 82.022604,316.544467 78.2904501,319.654595 L75.7662358,321.758107 C73.4327105,323.70266 69.9646393,323.387372 68.0200507,321.053865 C67.7802726,320.766132 67.5705131,320.454658 67.3940383,320.124293 C64.9901738,315.624206 63.4363663,312.100832 62.7220724,309.455299 C61.5352012,305.05948 60.953125,299.756119 60.953125,293.52832 C60.953125,278.640546 64.8712593,263.305052 72.6599745,247.560244 C76.0996984,240.50881 80.0180577,234.979569 84.4506156,230.990267 C89.1128875,226.794223 93.8456035,224.598633 98.6328125,224.598633 C105.20022,224.598633 110.166615,228.470285 113.203506,235.572692 C115.944906,241.98403 117.269531,251.064124 117.269531,262.888672 C117.269531,273.316544 115.899874,285.145402 113.169061,298.385705 C110.843906,309.659188 107.825628,320.516298 104.113835,330.956124 Z M77.928023,346.67778 C70.816721,348.821628 63.9032113,351.595302 57.1852039,354.999903 C48.451115,359.426229 40.9490412,364.427611 34.6931289,369.979578 C27.4851499,376.482429 21.8090448,383.484909 17.6484479,390.989537 C13.5652226,398.354607 11.5566406,405.131224 11.5566406,411.326172 C11.5566406,414.886944 12.4167109,417.658281 14.093427,419.769702 C15.6330546,421.708492 17.4355536,422.59668 19.7753906,422.59668 C28.7637548,422.59668 39.8011452,414.100544 52.4978516,396.65293 C55.556289,392.575013 58.7402353,387.453012 62.0390359,381.292602 C65.37181,375.068746 69.1816858,367.146624 73.4504111,357.562466 C74.991825,354.017214 76.4843686,350.389004 77.928023,346.67778 Z M109.415039,368.845703 C109.415039,360.919236 111.542156,353.04671 115.758227,345.266537 C119.949625,337.531897 125.400817,331.211988 132.096672,326.342275 C138.935892,321.368298 146.032806,318.836914 153.320312,318.836914 C161.10282,318.836914 167.552559,321.478689 172.42644,326.731124 C177.244978,331.923917 179.647461,338.618215 179.647461,346.628906 C179.647461,355.019726 177.571872,363.147294 173.444468,370.96764 C169.337812,378.748672 163.909169,385.154471 157.175796,390.150199 C150.294468,395.2557 143.210602,397.858398 135.986328,397.858398 C128.104393,397.858398 121.580314,395.12019 116.666785,389.686961 C111.819429,384.326903 109.415039,377.321806 109.415039,368.845703 Z M161.661133,341.990234 C161.661133,337.832336 160.681883,334.546038 158.768671,332.016708 C157.017991,329.702249 154.970357,328.644531 152.34375,328.644531 C149.667845,328.644531 147.087831,329.509878 144.526705,331.305992 C141.813356,333.20886 139.260308,336.069722 136.912358,339.88472 C134.143069,344.500201 131.837998,349.923898 130.006062,356.160274 C128.18191,362.370156 127.279297,367.824242 127.279297,372.507812 C127.279297,377.85153 128.280276,381.786411 130.152972,384.369442 C131.836602,386.691689 134.150127,387.806641 137.451172,387.806641 C143.036684,387.806641 148.23673,383.694186 153.059086,374.853219 C155.682653,370.069068 157.775171,364.682771 159.332134,358.688465 C160.888044,352.698211 161.661133,347.13197 161.661133,341.990234 Z M223.21689,379.704537 C223.229544,379.691066 223.242207,379.677581 223.254881,379.66408 L223.114663,379.532448 C223.079303,379.546893 223.04368,379.560495 223.007823,379.573253 L223.177999,379.743428 L223.21689,379.704537 Z M220.644623,379.200553 C220.559705,379.135136 220.478026,379.063516 220.400202,378.985691 L220.85928,379.444769 C220.781576,379.367071 220.710018,379.285459 220.644623,379.200553 Z M191.392841,325.475011 C191.443866,325.674064 191.470997,325.882692 191.470997,326.097656 C191.470997,326.214688 191.462779,326.331511 191.446431,326.447266 L191.451453,326.447266 L191.862367,324.451398 C191.783543,324.834256 191.619638,325.181489 191.392841,325.475011 Z M226.453839,324.569911 C226.402814,324.370857 226.375683,324.16223 226.375683,323.947266 C226.375683,323.830234 226.383901,323.713411 226.400249,323.597656 L226.395227,323.597656 L225.984313,325.593524 C226.063137,325.210666 226.227041,324.863433 226.453839,324.569911 Z M212.263844,330.597656 L203.614868,368.493155 C202.688639,372.738369 202.230469,375.716477 202.230469,377.268555 C202.230469,379.469732 202.70205,381.078658 203.575162,382.208567 C204.294481,383.139451 205.101882,383.53418 206.298828,383.53418 C207.784687,383.53418 209.106825,383.120177 210.35574,382.259813 C211.924556,381.179073 214.568851,378.68919 218.151369,374.873029 L218.228251,374.793681 L218.985988,374.035944 C220.743348,372.278585 223.59259,372.278585 225.349949,374.035944 L225.808948,374.494943 C227.491788,376.177676 227.573459,378.879743 225.99537,380.661051 C220.298248,387.091828 216.395308,391.092096 214.069414,392.829156 C210.286067,395.654694 206.420833,397.125977 202.514648,397.125977 C197.651551,397.125977 193.588214,395.452838 190.580894,392.128958 C187.647468,388.88675 186.197266,384.688796 186.197266,379.709961 C186.197266,376.329838 186.836447,371.642508 188.097942,365.587602 L195.183133,330.597656 L188.970997,330.597656 C186.485715,330.597656 184.470997,328.582938 184.470997,326.097656 C184.470997,325.792827 184.50197,325.488786 184.56344,325.190218 L185.006168,323.039827 C185.4368,320.948185 187.278213,319.447266 189.413724,319.447266 L197.46882,319.447266 L203.616707,289.805669 C203.9244,288.322149 204.95797,287.09305 206.366714,286.535423 L215.820381,282.793346 C218.131212,281.878642 220.746025,283.010427 221.660729,285.321258 C221.994698,286.164967 222.065797,287.089932 221.864697,287.974771 L214.711857,319.447266 L228.875683,319.447266 C231.360964,319.447266 233.375683,321.461984 233.375683,323.947266 C233.375683,324.252095 233.344709,324.556136 233.28324,324.854704 L232.840512,327.005094 C232.40988,329.096736 230.568467,330.597656 228.432955,330.597656 L212.263844,330.597656 Z M262.411133,381.785156 C262.411133,385.891063 261.063374,389.511514 258.406684,392.480755 C255.683529,395.524281 252.283439,397.125977 248.413086,397.125977 C240.783446,397.125977 236.368164,392.710694 236.368164,385.081055 C236.368164,382.232786 236.994812,379.621752 238.260373,377.301557 C239.494764,375.038507 241.143517,373.180389 243.185988,371.76637 C245.353503,370.265783 247.776598,369.496094 250.366211,369.496094 C253.892782,369.496094 256.892648,370.672512 259.129295,373.026877 C261.320767,375.33369 262.411133,378.317848 262.411133,381.785156 Z M362.290758,316.590158 L362.644673,316.568039 L363.210026,313.797807 C363.077926,314.445102 362.694984,315.013798 362.144878,315.379623 C362.750347,314.976981 363.346058,314.578177 363.93202,314.183203 C362.678,314.348145 361.18861,314.601799 359.444125,314.943026 C360.687063,314.69996 361.894791,315.423175 362.290758,316.590158 Z M353.795356,247.956386 L353.386674,250.680933 C357.744202,246.677623 362.097159,242.989067 366.445999,239.615421 C373.354495,234.256103 379.654765,230.252587 385.371111,227.607711 C391.256717,224.88452 396.750135,223.5 401.855469,223.5 C407.644472,223.5 412.424686,225.545011 415.919413,229.596869 C419.322505,233.542482 420.980469,238.828745 420.980469,245.310547 C420.980469,252.383866 418.637712,260.156563 414.02532,268.648538 C409.51452,276.953469 403.126384,285.436076 394.87541,294.103748 C389.218,300.078395 383.86575,305.156143 378.811106,309.337979 C385.885139,310.307841 391.948843,313.092664 396.911402,317.695617 C403.257672,323.582013 406.454102,331.271973 406.454102,340.525391 C406.454102,349.478507 403.873202,358.271062 398.758524,366.853318 C393.690403,375.357455 386.702444,382.64551 377.836278,388.698355 C367.879257,395.538396 356.28186,398.957031 343.139648,398.957031 C331.914853,398.957031 323.726574,396.695076 318.64315,391.899393 L316.346527,389.732768 L326.751669,376.142379 L329.575067,379.142239 C331.852487,381.561998 334.725857,383.555399 338.222732,385.121707 C341.682482,386.671387 345.223657,387.44043 348.876953,387.44043 C355.470343,387.44043 361.585024,385.450877 367.310419,381.424631 C373.145035,377.321579 377.817435,371.857885 381.347343,364.98785 C384.876462,358.119349 386.636719,350.794409 386.636719,342.966797 C386.636719,338.197913 385.793786,334.198468 384.144318,330.934626 C382.52934,327.739032 380.284657,325.308698 377.365123,323.577346 C374.428729,321.835996 370.935735,320.954102 366.821289,320.954102 C365.786484,320.954102 363.728506,321.237642 360.787731,321.812867 C358.34874,322.289831 355.984831,320.699374 355.507754,318.260369 C355.393795,317.677765 355.396238,317.07837 355.514943,316.496715 L356.351397,312.398092 C356.589178,311.232956 357.278475,310.209304 358.268664,309.550818 C367.49151,303.417534 374.311317,298.253219 378.696824,294.099886 C385.424147,287.728715 391.06898,281.077287 395.643533,274.13662 C401.557931,265.226616 404.458984,257.239302 404.458984,250.193359 C404.458984,246.273459 403.486587,243.308443 401.597157,241.140244 C399.794398,239.071505 397.487163,238.068359 394.40918,238.068359 C388.088106,238.068359 379.300234,242.500174 368.332236,251.537089 C360.926549,257.721219 355.012587,263.548748 350.592015,269.003463 L350.386719,270.232924 C349.070156,279.202013 347.200908,288.917996 344.779547,299.3832 C342.362614,309.829265 339.45582,320.801389 336.059272,332.300544 C332.664459,343.793829 329.287906,354.250909 325.926819,363.678339 C321.925144,374.849681 318.020834,383.183073 314.149741,388.731639 C309.899704,394.82336 305.374945,398.102539 300.415039,398.102539 C292.466348,398.102539 288.614258,391.644624 288.614258,380.686523 C288.614258,374.189393 289.811185,365.978894 292.188746,356.009822 C294.545998,346.125904 297.504712,336.670436 301.062305,327.652379 C309.432179,306.28076 319.745299,288.413569 332.016532,274.064488 C332.691609,269.525402 333.368058,264.207589 334.042495,258.138843 C334.567953,252.989352 335.119282,247.134142 335.696358,240.57413 C335.837115,238.97289 336.821299,237.568353 338.27824,236.88939 L348.707452,232.029174 C350.960131,230.979383 353.637312,231.954515 354.687104,234.207193 C355.038428,234.961075 355.173945,235.797575 355.078609,236.623818 L354.92306,237.96838 C354.678646,240.412517 354.474914,242.429464 354.311813,244.019699 C354.143746,245.658352 353.97339,246.963885 353.795356,247.956386 Z M353.386674,250.680933 L352.33823,257.670559 L348.876953,257.151367 L352.376953,257.151367 C352.376953,257.545083 352.350611,257.716304 351.844714,260.878162 L348.388672,260.325195 L345.913798,257.850322 C348.406304,255.357815 350.897235,252.96801 353.386674,250.680933 Z M378.811106,309.337979 C375.938172,311.714831 373.161379,313.802259 370.479341,315.600443 L368.530273,312.693359 L368.311949,309.200175 C371.05976,309.028437 372.485692,308.949219 372.924805,308.949219 C374.957909,308.949219 376.920587,309.078785 378.811106,309.337979 Z M328.00348,297.476942 C325.092981,302.014271 322.242124,306.97251 319.45218,312.351683 C313.891273,323.073432 309.393186,333.988789 305.955805,345.100323 C303.874539,351.824415 302.174634,358.464044 300.855542,365.019531 C299.554565,371.484991 298.910156,376.40593 298.910156,379.709961 C298.910156,381.649241 299.115354,383.027544 299.42896,383.782673 C299.909219,383.533619 300.577437,382.881846 301.394434,381.635926 C302.863019,379.396334 304.813915,375.279943 307.175136,369.37689 C308.45355,366.180856 309.940231,362.122618 311.632025,357.208361 C313.329418,352.277839 314.884661,347.531317 316.297812,342.968859 C317.70822,338.415256 319.242804,333.064403 320.90056,326.918577 C322.560606,320.764258 323.79377,315.993331 324.600822,312.603795 C325.918567,307.149794 327.052769,302.107049 328.00348,297.476942 Z" id="Jot.B" stroke="#ffeae9" stroke-width="1" fill="#ffeae9" fill-rule="nonzero"></path>
        </g>
    </g>
</svg>
