<svg viewBox="0 0 485 485" version="1.1" xmlns="http://www.w3.org/2000/svg" xmlns:xlink="http://www.w3.org/1999/xlink">
    <g id="logo-jotb-copy" stroke="none" stroke-width="1" fill="none" fill-rule="evenodd">
        <g id="logo-1" transform="translate(17.000000, 79.000000)" fill="#000000">
            <path d="M452,156.455296 L452,267.333307 C452,270.982294 450.790403,274.528353 448.560456,277.416683 L425.690684,307.038672 C422.566383,311.085411 417.742697,313.455296 412.630227,313.455296 L272.971352,313.455296 C266.166304,313.455296 260.059284,309.277519 257.593054,302.935091 L226,221.686927 L194.406946,302.935091 C191.940716,309.277519 185.833696,313.455296 179.028648,313.455296 L39.3697726,313.455296 C34.2573028,313.455296 29.4336167,311.085411 26.3093162,307.038672 L3.4395436,277.416683 C1.20959705,274.528353 -1.02112689e-14,270.982294 0,267.333307 L0,156.455296 L0,139.915822 C-1.99293891e-16,138.288464 0.471181366,136.771156 1.28456154,135.492881 C0.791548076,134.6292 0.693074115,133.553511 1.11094273,132.567286 L52.6794346,10.8588512 C52.8211939,10.5242806 53.0116762,10.2252513 53.2391176,9.96652518 C54.3564716,6.73441683 57.4263207,4.41319079 61.0383212,4.41319079 L118.771898,4.41319079 C123.328247,4.41319079 127.021898,8.10684161 127.021898,12.6631908 L127.021898,29.2158224 C127.021898,33.7721716 123.328247,37.4658224 118.771898,37.4658224 L77.2478864,37.4658224 L37.3348602,131.665822 L414.903113,131.665822 L366.713246,17.9313879 C364.937316,13.7399582 366.891913,8.90215353 371.081021,7.12075277 L386.266833,0.663048813 C386.270137,0.661643895 386.273442,0.660241134 386.276748,0.658840531 C390.47205,-1.11873058 395.31402,0.841227562 397.091591,5.03652956 L450.598861,131.320735 C451.270498,132.905888 451.408569,134.58349 451.093996,136.153253 C451.67316,137.281427 452,138.560456 452,139.915822 L452,156.455296 Z M32.9929007,163.572231 L32.9929007,250.142399 C32.9929007,253.442243 34.0917935,256.64809 36.1164536,259.2538 L51.0520747,278.475738 C53.865299,282.096318 58.1932552,284.214337 62.7783218,284.214337 L159.938395,284.214337 C166.051192,284.214337 171.539488,280.468545 173.767173,274.776119 L202.394499,201.624454 C202.731928,200.762217 202.905109,199.844474 202.905109,198.918563 L202.905109,163.572231 L32.9929007,163.572231 Z M420.656934,163.572231 L250.744526,163.572231 L250.744526,198.918563 C250.744526,199.844474 250.917707,200.762217 251.255136,201.624454 L279.882462,274.776119 C282.110147,280.468545 287.598443,284.214337 293.71124,284.214337 L390.871313,284.214337 C395.45638,284.214337 399.784336,282.096318 402.59756,278.475738 L417.533181,259.2538 C419.557842,256.64809 420.656934,253.442243 420.656934,250.142399 L420.656934,163.572231 Z" id="logo-thin-copy"></path>
        </g>
    </g>
</svg>
