<svg viewBox="0 0 441 450">
    <defs>
        <path d="M346,94.6704021 L346,161.751858 C346,163.966374 345.264918,166.118249 343.910059,167.869943 L330.050848,185.788487 C328.157067,188.236952 325.236171,189.670402 322.140789,189.670402 L237.467769,189.670402 C233.345738,189.670402 229.646043,187.141127 228.149814,183.300237 L209,134.141771 L189.850186,183.300237 C188.353957,187.141127 184.654262,189.670402 180.532231,189.670402 L95.8592112,189.670402 C92.7638295,189.670402 89.8429331,188.236952 87.9491522,185.788487 L74.089941,167.869943 C72.7350816,166.118249 72,163.966374 72,161.751858 L72,94.6704021 L72,84.6704021 C72,83.6826308 72.28643,82.7617589 72.7807631,81.9863132 C72.4812847,81.46235 72.4214899,80.8094487 72.6754943,80.2110519 L103.933985,6.57066359 C104.020628,6.36654348 104.137198,6.18428294 104.276413,6.0268237 C104.956246,4.07278539 106.814351,2.67040207 109,2.67040207 L144,2.67040207 C146.761424,2.67040207 149,4.90897832 149,7.67040207 L149,17.6704021 C149,20.4318258 146.761424,22.6704021 144,22.6704021 L118.827259,22.6704021 L94.632194,79.6704021 L323.512064,79.6704021 L294.304739,10.862257 C293.225765,8.32035308 294.411704,5.38505135 296.953608,4.30607713 L306.158657,0.398765845 C308.700561,-0.680208373 311.635862,0.505730506 312.714836,3.04763447 L345.14552,79.4495373 C345.553772,80.4113185 345.63777,81.4294202 345.44675,82.3819767 C345.800351,83.0676896 346,83.8457305 346,84.6704021 L346,94.6704021 Z M92,98.9768278 L92,151.350713 C92,153.353331 92.667922,155.298745 93.8980429,156.879023 L102.948049,168.505137 C104.653255,170.695735 107.273958,171.976828 110.050006,171.976828 L168.959229,171.976828 C172.66193,171.976828 175.986785,169.709097 177.338284,166.261861 L194.689527,122.004464 C194.894693,121.481153 195,120.924038 195,120.361947 L195,98.9768278 L92,98.9768278 Z M327,98.9768278 L224,98.9768278 L224,120.361947 C224,120.924038 224.105307,121.481153 224.310473,122.004464 L241.661716,166.261861 C243.013215,169.709097 246.33807,171.976828 250.040771,171.976828 L308.949994,171.976828 C311.726042,171.976828 314.346745,170.695735 316.051951,168.505137 L325.101957,156.879023 C326.332078,155.298745 327,153.353331 327,151.350713 L327,98.9768278 Z" id="path-1"></path>
        <filter x="-4.2%" y="-8.2%" width="111.3%" height="116.3%" filterUnits="objectBoundingBox" id="filter-2">
            <feOffset dx="4" dy="0" in="SourceAlpha" result="shadowOffsetOuter1"></feOffset>
            <feGaussianBlur stdDeviation="4.5" in="shadowOffsetOuter1" result="shadowBlurOuter1"></feGaussianBlur>
            <feComposite in="shadowBlurOuter1" in2="SourceAlpha" operator="out" result="shadowBlurOuter1"></feComposite>
            <feColorMatrix values="0 0 0 0 0   0 0 0 0 0   0 0 0 0 0  0 0 0 0.432528409 0" type="matrix" in="shadowBlurOuter1"></feColorMatrix>
        </filter>
        <path d="M76.0498047,316.96582 L73.5256255,319.069303 C72.6770686,319.776415 71.4159482,319.661768 70.7088252,318.81322 C70.6216335,318.70859 70.5453577,318.595327 70.4811853,318.475195 C68.191702,314.189232 66.7316649,310.87849 66.1010742,308.542969 C65.0024359,304.473938 64.453125,299.469105 64.453125,293.52832 C64.453125,279.205332 68.2372668,264.394282 75.8056641,249.094727 C79.0608887,242.421516 82.7229614,237.253925 86.7919922,233.591797 C90.8610229,229.929669 94.8079236,228.098633 98.6328125,228.098633 C103.678411,228.098633 107.462552,231.048636 109.985352,236.94873 C112.508151,242.848825 113.769531,251.495386 113.769531,262.888672 C113.769531,273.061249 112.426771,284.657812 109.741211,297.678711 C107.055651,310.699609 103.434268,323.150657 98.8769531,335.032227 C103.515648,334.462562 107.096342,334.177734 109.619141,334.177734 C109.812445,334.177734 110.040725,334.185806 110.303979,334.201948 C110.855215,334.23577 111.274681,334.710037 111.24088,335.261275 C111.237966,335.308797 111.231662,335.356051 111.222015,335.402674 L110.717773,337.839844 C106.567362,337.839844 102.172875,338.165361 97.5341797,338.816406 C90.9423499,355.336671 82.9671692,370.635997 73.6083984,384.714844 C64.2496277,398.79369 54.7078937,409.779908 44.9829102,417.673828 C35.2579266,425.567748 26.3672278,429.514648 18.3105469,429.514648 C12.6139038,429.514648 8.13803711,427.805681 4.8828125,424.387695 C1.62758789,420.969709 0,416.290394 0,410.349609 C0,405.792295 1.22069092,400.807807 3.66210938,395.395996 C6.10352783,389.984185 9.5214624,384.572455 13.9160156,379.160645 C18.3105688,373.748834 23.4374707,368.723656 29.296875,364.084961 C34.586615,359.771788 40.1204138,355.967302 45.8984375,352.671387 C51.6764612,349.375472 57.88164,346.445814 64.5141602,343.882324 C71.1466803,341.318835 78.1249634,339.101246 85.4492188,337.229492 L86.3037109,334.910156 C93.1396826,314.23948 97.8596875,295.847737 100.463867,279.734375 C102.17286,268.422469 103.027344,259.226598 103.027344,252.146484 C103.027344,246.368461 102.335619,241.872249 100.952148,238.657715 C99.568678,235.443181 97.6562622,233.835938 95.2148438,233.835938 C91.7154773,233.835938 88.1754736,236.338354 84.5947266,241.343262 C81.0139795,246.34817 78.0843213,252.736452 75.8056641,260.508301 C73.5270068,268.28015 72.3876953,275.909468 72.3876953,283.396484 C72.3876953,290.247995 74.3430363,298.511666 78.2537184,308.1875 C79.5043086,311.281661 78.6136175,314.82931 76.0498047,316.96582 Z M83.6181641,341.501953 C73.9338708,343.861991 64.5955853,347.320615 55.6030273,351.87793 C46.6104694,356.435244 38.859082,361.602836 32.3486328,367.380859 C24.8616162,374.13545 18.9412653,381.439251 14.5874023,389.29248 C10.2335394,397.14571 8.05664062,404.4902 8.05664062,411.326172 C8.05664062,415.639344 9.15526245,419.179348 11.3525391,421.946289 C13.5498157,424.71323 16.3574048,426.09668 19.7753906,426.09668 C30.1921094,426.09668 42.0328113,416.982188 55.2978516,398.75293 C58.4716956,394.521138 61.7472162,389.251822 65.1245117,382.944824 C68.5018073,376.637827 72.3469836,368.642301 76.6601562,358.958008 C79.1015747,353.342745 81.4208875,347.524119 83.6181641,341.501953 Z M112.915039,368.845703 C112.915039,361.521448 114.888489,354.217647 118.835449,346.934082 C122.782409,339.650517 127.888966,333.730166 134.155273,329.172852 C140.421581,324.615537 146.809863,322.336914 153.320312,322.336914 C160.156284,322.336914 165.669738,324.595192 169.86084,329.111816 C174.051942,333.628441 176.147461,339.467412 176.147461,346.628906 C176.147461,354.441445 174.2147,362.009729 170.349121,369.333984 C166.483542,376.65824 161.39733,382.65997 155.090332,387.339355 C148.783334,392.018741 142.415397,394.358398 135.986328,394.358398 C129.068976,394.358398 123.494487,392.018741 119.262695,387.339355 C115.030903,382.65997 112.915039,376.495481 112.915039,368.845703 Z M165.161133,341.990234 C165.161133,337.107397 163.960787,333.079117 161.560059,329.905273 C159.15933,326.731429 156.087258,325.144531 152.34375,325.144531 C148.925764,325.144531 145.650244,326.243153 142.51709,328.44043 C139.383936,330.637706 136.515312,333.852192 133.911133,338.083984 C130.981431,342.966821 128.560394,348.663379 126.647949,355.173828 C124.735505,361.684277 123.779297,367.462214 123.779297,372.507812 C123.779297,378.529978 124.959298,383.168604 127.319336,386.423828 C129.679374,389.679053 133.056619,391.306641 137.451172,391.306641 C144.531285,391.306641 150.756809,386.383187 156.12793,376.536133 C158.894871,371.490535 161.092114,365.834667 162.719727,359.568359 C164.347339,353.302052 165.161133,347.442736 165.161133,341.990234 Z M209.472656,327.097656 L200.195312,367.74707 C199.218745,372.223004 198.730469,375.396801 198.730469,377.268555 C198.730469,380.198257 199.422194,382.558259 200.805664,384.348633 C202.189135,386.139006 204.020171,387.03418 206.298828,387.03418 C208.496105,387.03418 210.510245,386.403489 212.341309,385.14209 C214.172372,383.88069 216.959617,381.256205 220.703125,377.268555 L221.460862,376.510818 C221.851386,376.120293 222.484551,376.120293 222.875076,376.510818 L223.334153,376.969896 C223.708114,377.343832 223.726259,377.944287 223.375573,378.340133 C217.841575,384.586779 214.041417,388.481702 211.975098,390.024902 C208.760563,392.42563 205.607112,393.625977 202.514648,393.625977 C198.608379,393.625977 195.495617,392.344251 193.17627,389.780762 C190.856922,387.217272 189.697266,383.860372 189.697266,379.709961 C189.697266,376.617498 190.307611,372.141631 191.52832,366.282227 L199.462891,327.097656 L188.970997,327.097656 C188.418712,327.097656 187.970997,326.649941 187.970997,326.097656 C187.970997,326.029916 187.97788,325.962352 187.99154,325.896003 L188.434267,323.745613 C188.529963,323.280803 188.939166,322.947266 189.413724,322.947266 L200.317383,322.947266 L207.043771,290.516467 C207.112147,290.186796 207.341829,289.913663 207.654883,289.789746 L217.108551,286.047669 C217.622069,285.844402 218.203138,286.095909 218.406406,286.609427 C218.480621,286.796918 218.496421,287.002466 218.451732,287.199097 L210.327148,322.947266 L228.875683,322.947266 C229.427968,322.947266 229.875683,323.394981 229.875683,323.947266 C229.875683,324.015006 229.8688,324.08257 229.85514,324.148919 L229.412412,326.299309 C229.316716,326.764119 228.907514,327.097656 228.432955,327.097656 L209.472656,327.097656 Z M258.911133,381.785156 C258.911133,385.040381 257.873546,387.827625 255.79834,390.146973 C253.723134,392.46632 251.261407,393.625977 248.413086,393.625977 C242.716443,393.625977 239.868164,390.777698 239.868164,385.081055 C239.868164,382.802397 240.35644,380.767913 241.333008,378.977539 C242.309575,377.187166 243.591301,375.742681 245.178223,374.644043 C246.765145,373.545405 248.494457,372.996094 250.366211,372.996094 C252.970391,372.996094 255.045565,373.809888 256.591797,375.4375 C258.138029,377.065112 258.911133,379.180977 258.911133,381.785156 Z M339.756653,240.061817 L350.185865,235.201602 C350.68646,234.968315 351.28139,235.185011 351.514677,235.685606 C351.592749,235.853135 351.622863,236.039024 351.601678,236.222634 L351.44043,237.620117 C351.196288,240.061536 350.992839,242.075676 350.830078,243.662598 C350.667317,245.24952 350.504558,246.490555 350.341797,247.385742 L348.876953,257.151367 C348.876953,257.232748 348.714194,258.29068 348.388672,260.325195 C355.143263,253.570604 361.877408,247.589219 368.591309,242.380859 C375.305209,237.1725 381.388319,233.306979 386.84082,230.78418 C392.293322,228.261381 397.298154,227 401.855469,227 C406.656925,227 410.461412,228.627588 413.269043,231.882812 C416.076674,235.138037 417.480469,239.613904 417.480469,245.310547 C417.480469,251.739615 415.30357,258.962037 410.949707,266.978027 C406.595844,274.994018 400.390665,283.233682 392.333984,291.697266 C383.626259,300.893275 375.691768,307.891903 368.530273,312.693359 C371.134453,312.530598 372.599282,312.449219 372.924805,312.449219 C381.713911,312.449219 388.915988,315.053359 394.53125,320.261719 C400.146512,325.470078 402.954102,332.224568 402.954102,340.525391 C402.954102,348.826213 400.553409,357.004843 395.751953,365.061523 C390.950497,373.118204 384.318076,380.035453 375.854492,385.813477 C366.495721,392.242545 355.590883,395.457031 343.139648,395.457031 C332.72293,395.457031 325.358094,393.422546 321.044922,389.353516 L327.026367,381.541016 C329.630547,384.307957 332.885723,386.566235 336.791992,388.315918 C340.698262,390.065601 344.726542,390.94043 348.876953,390.94043 C356.201208,390.94043 363.016733,388.722841 369.32373,384.287598 C375.630728,379.852354 380.676251,373.952348 384.460449,366.587402 C388.244648,359.222457 390.136719,351.349 390.136719,342.966797 C390.136719,337.677057 389.180511,333.140156 387.268066,329.355957 C385.355622,325.571758 382.649757,322.6421 379.150391,320.566895 C375.651024,318.491689 371.541365,317.454102 366.821289,317.454102 C365.499754,317.454102 363.264658,317.762045 360.116003,318.377932 C359.573999,318.483925 359.048677,318.130491 358.94266,317.588491 C358.917336,317.459026 358.917879,317.325829 358.944258,317.196575 L359.780712,313.097947 C359.833552,312.839029 359.986729,312.611551 360.206771,312.465221 C369.581836,306.230709 376.547417,300.956007 381.103516,296.641113 C388.020868,290.089974 393.839495,283.23376 398.55957,276.072266 C404.825878,266.632114 407.958984,258.005898 407.958984,250.193359 C407.958984,245.473284 406.717949,241.689142 404.23584,238.84082 C401.753731,235.992499 398.47821,234.568359 394.40918,234.568359 C387.084924,234.568359 377.644915,239.329054 366.088867,248.850586 C358.194948,255.442416 351.928734,261.667939 347.290039,267.527344 L346.923828,269.724609 C345.621738,278.595096 343.770357,288.21821 341.369629,298.594238 C338.968901,308.970267 336.079932,319.875106 332.702637,331.309082 C329.325341,342.743058 325.968441,353.139276 322.631836,362.498047 C318.725566,373.403049 314.941425,381.479954 311.279297,386.729004 C307.617169,391.978054 303.995786,394.602539 300.415039,394.602539 C294.881157,394.602539 292.114258,389.963914 292.114258,380.686523 C292.114258,374.501597 293.273914,366.546761 295.593262,356.821777 C297.912609,347.096794 300.821923,337.799198 304.321289,328.928711 C312.703492,307.525609 323.038676,289.744211 335.327148,275.583984 C336.059574,270.782528 336.791989,265.08597 337.524414,258.494141 C338.051633,253.327395 338.604466,247.45622 339.182913,240.880615 C339.214191,240.524799 339.432895,240.212695 339.756653,240.061817 Z M334.106445,283.030273 C327.921519,290.598671 322.001168,299.835232 316.345215,310.740234 C310.689262,321.645237 306.111671,332.753524 302.612305,344.06543 C300.496409,350.901401 298.767097,357.655891 297.424316,364.329102 C296.081536,371.002312 295.410156,376.129214 295.410156,379.709961 C295.410156,384.83694 296.671537,387.400391 299.194336,387.400391 C300.984709,387.31901 302.693677,386.037285 304.321289,383.555176 C305.948901,381.073067 307.983386,376.780304 310.424805,370.676758 C311.726895,367.421533 313.232413,363.311874 314.941406,358.347656 C316.650399,353.383439 318.216953,348.602399 319.641113,344.004395 C321.065274,339.40639 322.611483,334.015005 324.279785,327.830078 C325.948088,321.645151 327.189124,316.843767 328.00293,313.425781 C330.932632,301.30007 332.967117,291.168335 334.106445,283.030273 Z" id="path-3"></path>
        <filter x="-3.0%" y="-8.1%" width="107.9%" height="116.3%" filterUnits="objectBoundingBox" id="filter-4">
            <feMorphology radius="6" operator="dilate" in="SourceAlpha" result="shadowSpreadOuter1"></feMorphology>
            <feOffset dx="4" dy="0" in="shadowSpreadOuter1" result="shadowOffsetOuter1"></feOffset>
            <feGaussianBlur stdDeviation="3.5" in="shadowOffsetOuter1" result="shadowBlurOuter1"></feGaussianBlur>
            <feComposite in="shadowBlurOuter1" in2="SourceAlpha" operator="out" result="shadowBlurOuter1"></feComposite>
            <feColorMatrix values="0 0 0 0 0   0 0 0 0 0   0 0 0 0 0  0 0 0 0.360658872 0" type="matrix" in="shadowBlurOuter1"></feColorMatrix>
        </filter>
    </defs>
    <g id="Page-1" stroke="none" stroke-width="1" fill="none" fill-rule="evenodd">
        <g id="logo-jotb-copy-2" transform="translate(-26.000000, -19.000000)">
            <g id="logo-1" transform="translate(34.000000, 28.000000)">
                <g id="logo-thin-copy">
                    <use fill="black" fill-opacity="1" filter="url(#filter-2)" xlink:href="#path-1"></use>
                    <path d="M346,94.6704021 L346,161.751858 C346,163.966374 345.264918,166.118249 343.910059,167.869943 L330.050848,185.788487 C328.157067,188.236952 325.236171,189.670402 322.140789,189.670402 L237.467769,189.670402 C233.345738,189.670402 229.646043,187.141127 228.149814,183.300237 L209,134.141771 L189.850186,183.300237 C188.353957,187.141127 184.654262,189.670402 180.532231,189.670402 L95.8592112,189.670402 C92.7638295,189.670402 89.8429331,188.236952 87.9491522,185.788487 L74.089941,167.869943 C72.7350816,166.118249 72,163.966374 72,161.751858 L72,94.6704021 L72,84.6704021 C72,83.6826308 72.28643,82.7617589 72.7807631,81.9863132 C72.4812847,81.46235 72.4214899,80.8094487 72.6754943,80.2110519 L103.933985,6.57066359 C104.020628,6.36654348 104.137198,6.18428294 104.276413,6.0268237 C104.956246,4.07278539 106.814351,2.67040207 109,2.67040207 L144,2.67040207 C146.761424,2.67040207 149,4.90897832 149,7.67040207 L149,17.6704021 C149,20.4318258 146.761424,22.6704021 144,22.6704021 L118.827259,22.6704021 L94.632194,79.6704021 L323.512064,79.6704021 L294.304739,10.862257 C293.225765,8.32035308 294.411704,5.38505135 296.953608,4.30607713 L306.158657,0.398765845 C308.700561,-0.680208373 311.635862,0.505730506 312.714836,3.04763447 L345.14552,79.4495373 C345.553772,80.4113185 345.63777,81.4294202 345.44675,82.3819767 C345.800351,83.0676896 346,83.8457305 346,84.6704021 L346,94.6704021 Z M92,98.9768278 L92,151.350713 C92,153.353331 92.667922,155.298745 93.8980429,156.879023 L102.948049,168.505137 C104.653255,170.695735 107.273958,171.976828 110.050006,171.976828 L168.959229,171.976828 C172.66193,171.976828 175.986785,169.709097 177.338284,166.261861 L194.689527,122.004464 C194.894693,121.481153 195,120.924038 195,120.361947 L195,98.9768278 L92,98.9768278 Z M327,98.9768278 L224,98.9768278 L224,120.361947 C224,120.924038 224.105307,121.481153 224.310473,122.004464 L241.661716,166.261861 C243.013215,169.709097 246.33807,171.976828 250.040771,171.976828 L308.949994,171.976828 C311.726042,171.976828 314.346745,170.695735 316.051951,168.505137 L325.101957,156.879023 C326.332078,155.298745 327,153.353331 327,151.350713 L327,98.9768278 Z" fill="#0C1E40" fill-rule="evenodd"></path>
                </g>
                <g id="Jot.B" fill-rule="nonzero">
                    <use fill="black" fill-opacity="1" filter="url(#filter-4)" xlink:href="#path-3"></use>
                    <path stroke="#0C1E40" stroke-width="7" d="M109.99243,337.689773 C110.023754,337.691459 110.056208,337.693329 110.089767,337.695386 C110.049778,337.692933 110.010066,337.689552 109.970651,337.685267 L109.99243,337.689773 Z M109.970651,337.685267 C109.808659,337.667654 109.651685,337.634757 109.501092,337.588117 L109.970651,337.685267 Z M109.501092,337.588117 C108.425526,337.255003 107.675467,336.220838 107.747441,335.047063 C107.754726,334.928255 107.770487,334.810118 107.794604,334.693555 L107.290362,337.130724 L109.501092,337.588117 Z M104.113835,330.956124 C106.274762,330.770798 108.107404,330.677734 109.619141,330.677734 C109.890146,330.677734 110.188114,330.688269 110.518323,330.708517 C112.998861,330.860714 114.886423,332.994913 114.734318,335.475487 C114.721205,335.68934 114.692836,335.901983 114.649427,336.111794 L113.567761,341.339844 L110.717773,341.339844 C107.331102,341.339844 103.76354,341.566578 100.015465,342.021287 C93.4865288,358.03558 85.6558663,372.913644 76.5231639,386.652405 C66.9810073,401.007127 57.211477,412.255627 47.1887,420.39127 C36.8934423,428.74809 27.28269,433.014648 18.3105469,433.014648 C11.7015699,433.014648 6.30222793,430.953082 2.34832974,426.801488 C-1.57036997,422.686854 -3.5,417.139167 -3.5,410.349609 C-3.5,405.258349 -2.16199195,399.794816 0.471732018,393.956728 C3.04262264,388.257921 6.62129759,382.591685 11.1989919,376.95434 C15.757781,371.340275 21.0677635,366.135649 27.0850909,361.372396 C32.5237521,356.937795 38.2171556,353.02358 44.1642574,349.631219 C50.0965442,346.247309 56.4596375,343.243094 63.2523666,340.617684 C69.4742178,338.212919 75.9892971,336.108279 82.7973359,334.303232 L82.9991458,333.755462 C89.7703166,313.273342 94.4388841,295.076704 97.0031397,279.211531 C98.6881269,268.058521 99.5273438,259.026949 99.5273438,252.146484 C99.5273438,246.803591 98.9041114,242.75258 97.7372495,240.041342 C96.8568574,237.995725 96.0717934,237.335938 95.2148438,237.335938 C93.0689882,237.335938 90.4312569,239.200541 87.4412292,243.379784 C84.1068233,248.040374 81.3389339,254.075911 79.1642821,261.493026 C76.9776058,268.951155 75.8876953,276.249662 75.8876953,283.396484 C75.8876953,289.742363 77.7431936,297.584079 81.4986915,306.875955 C83.3191802,311.380137 82.022604,316.544467 78.2904501,319.654595 L75.7662358,321.758107 C73.4327105,323.70266 69.9646393,323.387372 68.0200507,321.053865 C67.7802726,320.766132 67.5705131,320.454658 67.3940383,320.124293 C64.9901738,315.624206 63.4363663,312.100832 62.7220724,309.455299 C61.5352012,305.05948 60.953125,299.756119 60.953125,293.52832 C60.953125,278.640546 64.8712593,263.305052 72.6599745,247.560244 C76.0996984,240.50881 80.0180577,234.979569 84.4506156,230.990267 C89.1128875,226.794223 93.8456035,224.598633 98.6328125,224.598633 C105.20022,224.598633 110.166615,228.470285 113.203506,235.572692 C115.944906,241.98403 117.269531,251.064124 117.269531,262.888672 C117.269531,273.316544 115.899874,285.145402 113.169061,298.385705 C110.843906,309.659188 107.825628,320.516298 104.113835,330.956124 Z M77.928023,346.67778 C70.816721,348.821628 63.9032113,351.595302 57.1852039,354.999903 C48.451115,359.426229 40.9490412,364.427611 34.6931289,369.979578 C27.4851499,376.482429 21.8090448,383.484909 17.6484479,390.989537 C13.5652226,398.354607 11.5566406,405.131224 11.5566406,411.326172 C11.5566406,414.886944 12.4167109,417.658281 14.093427,419.769702 C15.6330546,421.708492 17.4355536,422.59668 19.7753906,422.59668 C28.7637548,422.59668 39.8011452,414.100544 52.4978516,396.65293 C55.556289,392.575013 58.7402353,387.453012 62.0390359,381.292602 C65.37181,375.068746 69.1816858,367.146624 73.4504111,357.562466 C74.991825,354.017214 76.4843686,350.389004 77.928023,346.67778 Z M109.415039,368.845703 C109.415039,360.919236 111.542156,353.04671 115.758227,345.266537 C119.949625,337.531897 125.400817,331.211988 132.096672,326.342275 C138.935892,321.368298 146.032806,318.836914 153.320312,318.836914 C161.10282,318.836914 167.552559,321.478689 172.42644,326.731124 C177.244978,331.923917 179.647461,338.618215 179.647461,346.628906 C179.647461,355.019726 177.571872,363.147294 173.444468,370.96764 C169.337812,378.748672 163.909169,385.154471 157.175796,390.150199 C150.294468,395.2557 143.210602,397.858398 135.986328,397.858398 C128.104393,397.858398 121.580314,395.12019 116.666785,389.686961 C111.819429,384.326903 109.415039,377.321806 109.415039,368.845703 Z M161.661133,341.990234 C161.661133,337.832336 160.681883,334.546038 158.768671,332.016708 C157.017991,329.702249 154.970357,328.644531 152.34375,328.644531 C149.667845,328.644531 147.087831,329.509878 144.526705,331.305992 C141.813356,333.20886 139.260308,336.069722 136.912358,339.88472 C134.143069,344.500201 131.837998,349.923898 130.006062,356.160274 C128.18191,362.370156 127.279297,367.824242 127.279297,372.507812 C127.279297,377.85153 128.280276,381.786411 130.152972,384.369442 C131.836602,386.691689 134.150127,387.806641 137.451172,387.806641 C143.036684,387.806641 148.23673,383.694186 153.059086,374.853219 C155.682653,370.069068 157.775171,364.682771 159.332134,358.688465 C160.888044,352.698211 161.661133,347.13197 161.661133,341.990234 Z M223.21689,379.704537 C223.229544,379.691066 223.242207,379.677581 223.254881,379.66408 L223.114663,379.532448 C223.079303,379.546893 223.04368,379.560495 223.007823,379.573253 L223.177999,379.743428 L223.21689,379.704537 Z M220.644623,379.200553 C220.559705,379.135136 220.478026,379.063516 220.400202,378.985691 L220.85928,379.444769 C220.781576,379.367071 220.710018,379.285459 220.644623,379.200553 Z M191.392841,325.475011 C191.443866,325.674064 191.470997,325.882692 191.470997,326.097656 C191.470997,326.214688 191.462779,326.331511 191.446431,326.447266 L191.451453,326.447266 L191.862367,324.451398 C191.783543,324.834256 191.619638,325.181489 191.392841,325.475011 Z M226.453839,324.569911 C226.402814,324.370857 226.375683,324.16223 226.375683,323.947266 C226.375683,323.830234 226.383901,323.713411 226.400249,323.597656 L226.395227,323.597656 L225.984313,325.593524 C226.063137,325.210666 226.227041,324.863433 226.453839,324.569911 Z M212.263844,330.597656 L203.614868,368.493155 C202.688639,372.738369 202.230469,375.716477 202.230469,377.268555 C202.230469,379.469732 202.70205,381.078658 203.575162,382.208567 C204.294481,383.139451 205.101882,383.53418 206.298828,383.53418 C207.784687,383.53418 209.106825,383.120177 210.35574,382.259813 C211.924556,381.179073 214.568851,378.68919 218.151369,374.873029 L218.228251,374.793681 L218.985988,374.035944 C220.743348,372.278585 223.59259,372.278585 225.349949,374.035944 L225.808948,374.494943 C227.491788,376.177676 227.573459,378.879743 225.99537,380.661051 C220.298248,387.091828 216.395308,391.092096 214.069414,392.829156 C210.286067,395.654694 206.420833,397.125977 202.514648,397.125977 C197.651551,397.125977 193.588214,395.452838 190.580894,392.128958 C187.647468,388.88675 186.197266,384.688796 186.197266,379.709961 C186.197266,376.329838 186.836447,371.642508 188.097942,365.587602 L195.183133,330.597656 L188.970997,330.597656 C186.485715,330.597656 184.470997,328.582938 184.470997,326.097656 C184.470997,325.792827 184.50197,325.488786 184.56344,325.190218 L185.006168,323.039827 C185.4368,320.948185 187.278213,319.447266 189.413724,319.447266 L197.46882,319.447266 L203.616707,289.805669 C203.9244,288.322149 204.95797,287.09305 206.366714,286.535423 L215.820381,282.793346 C218.131212,281.878642 220.746025,283.010427 221.660729,285.321258 C221.994698,286.164967 222.065797,287.089932 221.864697,287.974771 L214.711857,319.447266 L228.875683,319.447266 C231.360964,319.447266 233.375683,321.461984 233.375683,323.947266 C233.375683,324.252095 233.344709,324.556136 233.28324,324.854704 L232.840512,327.005094 C232.40988,329.096736 230.568467,330.597656 228.432955,330.597656 L212.263844,330.597656 Z M262.411133,381.785156 C262.411133,385.891063 261.063374,389.511514 258.406684,392.480755 C255.683529,395.524281 252.283439,397.125977 248.413086,397.125977 C240.783446,397.125977 236.368164,392.710694 236.368164,385.081055 C236.368164,382.232786 236.994812,379.621752 238.260373,377.301557 C239.494764,375.038507 241.143517,373.180389 243.185988,371.76637 C245.353503,370.265783 247.776598,369.496094 250.366211,369.496094 C253.892782,369.496094 256.892648,370.672512 259.129295,373.026877 C261.320767,375.33369 262.411133,378.317848 262.411133,381.785156 Z M362.290758,316.590158 L362.644673,316.568039 L363.210026,313.797807 C363.077926,314.445102 362.694984,315.013798 362.144878,315.379623 C362.750347,314.976981 363.346058,314.578177 363.93202,314.183203 C362.678,314.348145 361.18861,314.601799 359.444125,314.943026 C360.687063,314.69996 361.894791,315.423175 362.290758,316.590158 Z M353.795356,247.956386 L353.386674,250.680933 C357.744202,246.677623 362.097159,242.989067 366.445999,239.615421 C373.354495,234.256103 379.654765,230.252587 385.371111,227.607711 C391.256717,224.88452 396.750135,223.5 401.855469,223.5 C407.644472,223.5 412.424686,225.545011 415.919413,229.596869 C419.322505,233.542482 420.980469,238.828745 420.980469,245.310547 C420.980469,252.383866 418.637712,260.156563 414.02532,268.648538 C409.51452,276.953469 403.126384,285.436076 394.87541,294.103748 C389.218,300.078395 383.86575,305.156143 378.811106,309.337979 C385.885139,310.307841 391.948843,313.092664 396.911402,317.695617 C403.257672,323.582013 406.454102,331.271973 406.454102,340.525391 C406.454102,349.478507 403.873202,358.271062 398.758524,366.853318 C393.690403,375.357455 386.702444,382.64551 377.836278,388.698355 C367.879257,395.538396 356.28186,398.957031 343.139648,398.957031 C331.914853,398.957031 323.726574,396.695076 318.64315,391.899393 L316.346527,389.732768 L326.751669,376.142379 L329.575067,379.142239 C331.852487,381.561998 334.725857,383.555399 338.222732,385.121707 C341.682482,386.671387 345.223657,387.44043 348.876953,387.44043 C355.470343,387.44043 361.585024,385.450877 367.310419,381.424631 C373.145035,377.321579 377.817435,371.857885 381.347343,364.98785 C384.876462,358.119349 386.636719,350.794409 386.636719,342.966797 C386.636719,338.197913 385.793786,334.198468 384.144318,330.934626 C382.52934,327.739032 380.284657,325.308698 377.365123,323.577346 C374.428729,321.835996 370.935735,320.954102 366.821289,320.954102 C365.786484,320.954102 363.728506,321.237642 360.787731,321.812867 C358.34874,322.289831 355.984831,320.699374 355.507754,318.260369 C355.393795,317.677765 355.396238,317.07837 355.514943,316.496715 L356.351397,312.398092 C356.589178,311.232956 357.278475,310.209304 358.268664,309.550818 C367.49151,303.417534 374.311317,298.253219 378.696824,294.099886 C385.424147,287.728715 391.06898,281.077287 395.643533,274.13662 C401.557931,265.226616 404.458984,257.239302 404.458984,250.193359 C404.458984,246.273459 403.486587,243.308443 401.597157,241.140244 C399.794398,239.071505 397.487163,238.068359 394.40918,238.068359 C388.088106,238.068359 379.300234,242.500174 368.332236,251.537089 C360.926549,257.721219 355.012587,263.548748 350.592015,269.003463 L350.386719,270.232924 C349.070156,279.202013 347.200908,288.917996 344.779547,299.3832 C342.362614,309.829265 339.45582,320.801389 336.059272,332.300544 C332.664459,343.793829 329.287906,354.250909 325.926819,363.678339 C321.925144,374.849681 318.020834,383.183073 314.149741,388.731639 C309.899704,394.82336 305.374945,398.102539 300.415039,398.102539 C292.466348,398.102539 288.614258,391.644624 288.614258,380.686523 C288.614258,374.189393 289.811185,365.978894 292.188746,356.009822 C294.545998,346.125904 297.504712,336.670436 301.062305,327.652379 C309.432179,306.28076 319.745299,288.413569 332.016532,274.064488 C332.691609,269.525402 333.368058,264.207589 334.042495,258.138843 C334.567953,252.989352 335.119282,247.134142 335.696358,240.57413 C335.837115,238.97289 336.821299,237.568353 338.27824,236.88939 L348.707452,232.029174 C350.960131,230.979383 353.637312,231.954515 354.687104,234.207193 C355.038428,234.961075 355.173945,235.797575 355.078609,236.623818 L354.92306,237.96838 C354.678646,240.412517 354.474914,242.429464 354.311813,244.019699 C354.143746,245.658352 353.97339,246.963885 353.795356,247.956386 Z M353.386674,250.680933 L352.33823,257.670559 L348.876953,257.151367 L352.376953,257.151367 C352.376953,257.545083 352.350611,257.716304 351.844714,260.878162 L348.388672,260.325195 L345.913798,257.850322 C348.406304,255.357815 350.897235,252.96801 353.386674,250.680933 Z M378.811106,309.337979 C375.938172,311.714831 373.161379,313.802259 370.479341,315.600443 L368.530273,312.693359 L368.311949,309.200175 C371.05976,309.028437 372.485692,308.949219 372.924805,308.949219 C374.957909,308.949219 376.920587,309.078785 378.811106,309.337979 Z M328.00348,297.476942 C325.092981,302.014271 322.242124,306.97251 319.45218,312.351683 C313.891273,323.073432 309.393186,333.988789 305.955805,345.100323 C303.874539,351.824415 302.174634,358.464044 300.855542,365.019531 C299.554565,371.484991 298.910156,376.40593 298.910156,379.709961 C298.910156,381.649241 299.115354,383.027544 299.42896,383.782673 C299.909219,383.533619 300.577437,382.881846 301.394434,381.635926 C302.863019,379.396334 304.813915,375.279943 307.175136,369.37689 C308.45355,366.180856 309.940231,362.122618 311.632025,357.208361 C313.329418,352.277839 314.884661,347.531317 316.297812,342.968859 C317.70822,338.415256 319.242804,333.064403 320.90056,326.918577 C322.560606,320.764258 323.79377,315.993331 324.600822,312.603795 C325.918567,307.149794 327.052769,302.107049 328.00348,297.476942 Z" fill="#0C1E40" fill-rule="evenodd"></path>
                </g>
            </g>
        </g>
    </g>
</svg>
