<?xml version="1.0" encoding="UTF-8"?>
<svg width="485px" height="485px" viewBox="0 0 485 485" version="1.1" xmlns="http://www.w3.org/2000/svg" xmlns:xlink="http://www.w3.org/1999/xlink">
    <!-- Generator: Sketch 55.2 (78181) - https://sketchapp.com -->
    <title>logo-jotb copy 3</title>
    <desc>Created with Sketch.</desc>
    <defs>
        <radialGradient cx="50%" cy="41.3583776%" fx="50%" fy="41.3583776%" r="35.4583284%" gradientTransform="translate(0.500000,0.413584),rotate(90.000000),scale(1.000000,1.312709),translate(-0.500000,-0.413584)" id="radialGradient-1">
            <stop stop-color="#192D54" offset="0%"></stop>
            <stop stop-color="#0C1E40" offset="100%"></stop>
        </radialGradient>
    </defs>
    <g id="logo-jotb-copy-3" stroke="none" stroke-width="1" fill="none" fill-rule="evenodd">
        <rect fill="#0C1E40" x="0" y="0" width="485" height="485"></rect>
        <g id="logo-1">
            <rect id="Rectangle" fill="url(#radialGradient-1)" x="0" y="0" width="485" height="485"></rect>
            <path d="M380,122.670402 L380,189.751858 C380,191.966374 379.264918,194.118249 377.910059,195.869943 L364.050848,213.788487 C362.157067,216.236952 359.236171,217.670402 356.140789,217.670402 L271.467769,217.670402 C267.345738,217.670402 263.646043,215.141127 262.149814,211.300237 L243,162.141771 L223.850186,211.300237 C222.353957,215.141127 218.654262,217.670402 214.532231,217.670402 L129.859211,217.670402 C126.763829,217.670402 123.842933,216.236952 121.949152,213.788487 L108.089941,195.869943 C106.735082,194.118249 106,191.966374 106,189.751858 L106,122.670402 L106,112.670402 C106,111.682631 106.28643,110.761759 106.780763,109.986313 C106.481285,109.46235 106.42149,108.809449 106.675494,108.211052 L137.933985,34.5706636 C138.020628,34.3665435 138.137198,34.1842829 138.276413,34.0268237 C138.956246,32.0727854 140.814351,30.6704021 143,30.6704021 L178,30.6704021 C180.761424,30.6704021 183,32.9089783 183,35.6704021 L183,45.6704021 C183,48.4318258 180.761424,50.6704021 178,50.6704021 L152.827259,50.6704021 L128.632194,107.670402 L357.512064,107.670402 L328.304739,38.862257 C327.225765,36.3203531 328.411704,33.3850513 330.953608,32.3060771 L340.158657,28.3987658 C342.700561,27.3197916 345.635862,28.5057305 346.714836,31.0476345 L379.14552,107.449537 C379.553772,108.411319 379.63777,109.42942 379.44675,110.381977 C379.800351,111.06769 380,111.845731 380,112.670402 L380,122.670402 Z M126,126.976828 L126,179.350713 C126,181.353331 126.667922,183.298745 127.898043,184.879023 L136.948049,196.505137 C138.653255,198.695735 141.273958,199.976828 144.050006,199.976828 L202.959229,199.976828 C206.66193,199.976828 209.986785,197.709097 211.338284,194.261861 L228.689527,150.004464 C228.894693,149.481153 229,148.924038 229,148.361947 L229,126.976828 L126,126.976828 Z M361,126.976828 L258,126.976828 L258,148.361947 C258,148.924038 258.105307,149.481153 258.310473,150.004464 L275.661716,194.261861 C277.013215,197.709097 280.33807,199.976828 284.040771,199.976828 L342.949994,199.976828 C345.726042,199.976828 348.346745,198.695735 350.051951,196.505137 L359.101957,184.879023 C360.332078,183.298745 361,181.353331 361,179.350713 L361,126.976828 Z" id="logo-thin-copy" fill="#0A1B3B"></path>
            <path d="M143.99243,365.689773 C144.023754,365.691459 144.056208,365.693329 144.089767,365.695386 C144.049778,365.692933 144.010066,365.689552 143.970651,365.685267 L143.99243,365.689773 Z M143.970651,365.685267 C143.808659,365.667654 143.651685,365.634757 143.501092,365.588117 L143.970651,365.685267 Z M143.501092,365.588117 C142.425526,365.255003 141.675467,364.220838 141.747441,363.047063 C141.754726,362.928255 141.770487,362.810118 141.794604,362.693555 L141.290362,365.130724 L143.501092,365.588117 Z M138.113835,358.956124 C140.274762,358.770798 142.107404,358.677734 143.619141,358.677734 C143.890146,358.677734 144.188114,358.688269 144.518323,358.708517 C146.998861,358.860714 148.886423,360.994913 148.734318,363.475487 C148.721205,363.68934 148.692836,363.901983 148.649427,364.111794 L147.567761,369.339844 L144.717773,369.339844 C141.331102,369.339844 137.76354,369.566578 134.015465,370.021287 C127.486529,386.03558 119.655866,400.913644 110.523164,414.652405 C100.981007,429.007127 91.211477,440.255627 81.1887,448.39127 C70.8934423,456.74809 61.28269,461.014648 52.3105469,461.014648 C45.7015699,461.014648 40.3022279,458.953082 36.3483297,454.801488 C32.42963,450.686854 30.5,445.139167 30.5,438.349609 C30.5,433.258349 31.838008,427.794816 34.471732,421.956728 C37.0426226,416.257921 40.6212976,410.591685 45.1989919,404.95434 C49.757781,399.340275 55.0677635,394.135649 61.0850909,389.372396 C66.5237521,384.937795 72.2171556,381.02358 78.1642574,377.631219 C84.0965442,374.247309 90.4596375,371.243094 97.2523666,368.617684 C103.474218,366.212919 109.989297,364.108279 116.797336,362.303232 L116.999146,361.755462 C123.770317,341.273342 128.438884,323.076704 131.00314,307.211531 C132.688127,296.058521 133.527344,287.026949 133.527344,280.146484 C133.527344,274.803591 132.904111,270.75258 131.737249,268.041342 C130.856857,265.995725 130.071793,265.335938 129.214844,265.335938 C127.068988,265.335938 124.431257,267.200541 121.441229,271.379784 C118.106823,276.040374 115.338934,282.075911 113.164282,289.493026 C110.977606,296.951155 109.887695,304.249662 109.887695,311.396484 C109.887695,317.742363 111.743194,325.584079 115.498691,334.875955 C117.31918,339.380137 116.022604,344.544467 112.29045,347.654595 L109.766236,349.758107 C107.43271,351.70266 103.964639,351.387372 102.020051,349.053865 C101.780273,348.766132 101.570513,348.454658 101.394038,348.124293 C98.9901738,343.624206 97.4363663,340.100832 96.7220724,337.455299 C95.5352012,333.05948 94.953125,327.756119 94.953125,321.52832 C94.953125,306.640546 98.8712593,291.305052 106.659975,275.560244 C110.099698,268.50881 114.018058,262.979569 118.450616,258.990267 C123.112887,254.794223 127.845603,252.598633 132.632812,252.598633 C139.20022,252.598633 144.166615,256.470285 147.203506,263.572692 C149.944906,269.98403 151.269531,279.064124 151.269531,290.888672 C151.269531,301.316544 149.899874,313.145402 147.169061,326.385705 C144.843906,337.659188 141.825628,348.516298 138.113835,358.956124 Z M111.928023,374.67778 C104.816721,376.821628 97.9032113,379.595302 91.1852039,382.999903 C82.451115,387.426229 74.9490412,392.427611 68.6931289,397.979578 C61.4851499,404.482429 55.8090448,411.484909 51.6484479,418.989537 C47.5652226,426.354607 45.5566406,433.131224 45.5566406,439.326172 C45.5566406,442.886944 46.4167109,445.658281 48.093427,447.769702 C49.6330546,449.708492 51.4355536,450.59668 53.7753906,450.59668 C62.7637548,450.59668 73.8011452,442.100544 86.4978516,424.65293 C89.556289,420.575013 92.7402353,415.453012 96.0390359,409.292602 C99.37181,403.068746 103.181686,395.146624 107.450411,385.562466 C108.991825,382.017214 110.484369,378.389004 111.928023,374.67778 Z M143.415039,396.845703 C143.415039,388.919236 145.542156,381.04671 149.758227,373.266537 C153.949625,365.531897 159.400817,359.211988 166.096672,354.342275 C172.935892,349.368298 180.032806,346.836914 187.320312,346.836914 C195.10282,346.836914 201.552559,349.478689 206.42644,354.731124 C211.244978,359.923917 213.647461,366.618215 213.647461,374.628906 C213.647461,383.019726 211.571872,391.147294 207.444468,398.96764 C203.337812,406.748672 197.909169,413.154471 191.175796,418.150199 C184.294468,423.2557 177.210602,425.858398 169.986328,425.858398 C162.104393,425.858398 155.580314,423.12019 150.666785,417.686961 C145.819429,412.326903 143.415039,405.321806 143.415039,396.845703 Z M195.661133,369.990234 C195.661133,365.832336 194.681883,362.546038 192.768671,360.016708 C191.017991,357.702249 188.970357,356.644531 186.34375,356.644531 C183.667845,356.644531 181.087831,357.509878 178.526705,359.305992 C175.813356,361.20886 173.260308,364.069722 170.912358,367.88472 C168.143069,372.500201 165.837998,377.923898 164.006062,384.160274 C162.18191,390.370156 161.279297,395.824242 161.279297,400.507812 C161.279297,405.85153 162.280276,409.786411 164.152972,412.369442 C165.836602,414.691689 168.150127,415.806641 171.451172,415.806641 C177.036684,415.806641 182.23673,411.694186 187.059086,402.853219 C189.682653,398.069068 191.775171,392.682771 193.332134,386.688465 C194.888044,380.698211 195.661133,375.13197 195.661133,369.990234 Z M257.21689,407.704537 C257.229544,407.691066 257.242207,407.677581 257.254881,407.66408 L257.114663,407.532448 C257.079303,407.546893 257.04368,407.560495 257.007823,407.573253 L257.177999,407.743428 L257.21689,407.704537 Z M254.644623,407.200553 C254.559705,407.135136 254.478026,407.063516 254.400202,406.985691 L254.85928,407.444769 C254.781576,407.367071 254.710018,407.285459 254.644623,407.200553 Z M225.392841,353.475011 C225.443866,353.674064 225.470997,353.882692 225.470997,354.097656 C225.470997,354.214688 225.462779,354.331511 225.446431,354.447266 L225.451453,354.447266 L225.862367,352.451398 C225.783543,352.834256 225.619638,353.181489 225.392841,353.475011 Z M260.453839,352.569911 C260.402814,352.370857 260.375683,352.16223 260.375683,351.947266 C260.375683,351.830234 260.383901,351.713411 260.400249,351.597656 L260.395227,351.597656 L259.984313,353.593524 C260.063137,353.210666 260.227041,352.863433 260.453839,352.569911 Z M246.263844,358.597656 L237.614868,396.493155 C236.688639,400.738369 236.230469,403.716477 236.230469,405.268555 C236.230469,407.469732 236.70205,409.078658 237.575162,410.208567 C238.294481,411.139451 239.101882,411.53418 240.298828,411.53418 C241.784687,411.53418 243.106825,411.120177 244.35574,410.259813 C245.924556,409.179073 248.568851,406.68919 252.151369,402.873029 L252.228251,402.793681 L252.985988,402.035944 C254.743348,400.278585 257.59259,400.278585 259.349949,402.035944 L259.808948,402.494943 C261.491788,404.177676 261.573459,406.879743 259.99537,408.661051 C254.298248,415.091828 250.395308,419.092096 248.069414,420.829156 C244.286067,423.654694 240.420833,425.125977 236.514648,425.125977 C231.651551,425.125977 227.588214,423.452838 224.580894,420.128958 C221.647468,416.88675 220.197266,412.688796 220.197266,407.709961 C220.197266,404.329838 220.836447,399.642508 222.097942,393.587602 L229.183133,358.597656 L222.970997,358.597656 C220.485715,358.597656 218.470997,356.582938 218.470997,354.097656 C218.470997,353.792827 218.50197,353.488786 218.56344,353.190218 L219.006168,351.039827 C219.4368,348.948185 221.278213,347.447266 223.413724,347.447266 L231.46882,347.447266 L237.616707,317.805669 C237.9244,316.322149 238.95797,315.09305 240.366714,314.535423 L249.820381,310.793346 C252.131212,309.878642 254.746025,311.010427 255.660729,313.321258 C255.994698,314.164967 256.065797,315.089932 255.864697,315.974771 L248.711857,347.447266 L262.875683,347.447266 C265.360964,347.447266 267.375683,349.461984 267.375683,351.947266 C267.375683,352.252095 267.344709,352.556136 267.28324,352.854704 L266.840512,355.005094 C266.40988,357.096736 264.568467,358.597656 262.432955,358.597656 L246.263844,358.597656 Z M296.411133,409.785156 C296.411133,413.891063 295.063374,417.511514 292.406684,420.480755 C289.683529,423.524281 286.283439,425.125977 282.413086,425.125977 C274.783446,425.125977 270.368164,420.710694 270.368164,413.081055 C270.368164,410.232786 270.994812,407.621752 272.260373,405.301557 C273.494764,403.038507 275.143517,401.180389 277.185988,399.76637 C279.353503,398.265783 281.776598,397.496094 284.366211,397.496094 C287.892782,397.496094 290.892648,398.672512 293.129295,401.026877 C295.320767,403.33369 296.411133,406.317848 296.411133,409.785156 Z M396.290758,344.590158 L396.644673,344.568039 L397.210026,341.797807 C397.077926,342.445102 396.694984,343.013798 396.144878,343.379623 C396.750347,342.976981 397.346058,342.578177 397.93202,342.183203 C396.678,342.348145 395.18861,342.601799 393.444125,342.943026 C394.687063,342.69996 395.894791,343.423175 396.290758,344.590158 Z M387.795356,275.956386 L387.386674,278.680933 C391.744202,274.677623 396.097159,270.989067 400.445999,267.615421 C407.354495,262.256103 413.654765,258.252587 419.371111,255.607711 C425.256717,252.88452 430.750135,251.5 435.855469,251.5 C441.644472,251.5 446.424686,253.545011 449.919413,257.596869 C453.322505,261.542482 454.980469,266.828745 454.980469,273.310547 C454.980469,280.383866 452.637712,288.156563 448.02532,296.648538 C443.51452,304.953469 437.126384,313.436076 428.87541,322.103748 C423.218,328.078395 417.86575,333.156143 412.811106,337.337979 C419.885139,338.307841 425.948843,341.092664 430.911402,345.695617 C437.257672,351.582013 440.454102,359.271973 440.454102,368.525391 C440.454102,377.478507 437.873202,386.271062 432.758524,394.853318 C427.690403,403.357455 420.702444,410.64551 411.836278,416.698355 C401.879257,423.538396 390.28186,426.957031 377.139648,426.957031 C365.914853,426.957031 357.726574,424.695076 352.64315,419.899393 L350.346527,417.732768 L360.751669,404.142379 L363.575067,407.142239 C365.852487,409.561998 368.725857,411.555399 372.222732,413.121707 C375.682482,414.671387 379.223657,415.44043 382.876953,415.44043 C389.470343,415.44043 395.585024,413.450877 401.310419,409.424631 C407.145035,405.321579 411.817435,399.857885 415.347343,392.98785 C418.876462,386.119349 420.636719,378.794409 420.636719,370.966797 C420.636719,366.197913 419.793786,362.198468 418.144318,358.934626 C416.52934,355.739032 414.284657,353.308698 411.365123,351.577346 C408.428729,349.835996 404.935735,348.954102 400.821289,348.954102 C399.786484,348.954102 397.728506,349.237642 394.787731,349.812867 C392.34874,350.289831 389.984831,348.699374 389.507754,346.260369 C389.393795,345.677765 389.396238,345.07837 389.514943,344.496715 L390.351397,340.398092 C390.589178,339.232956 391.278475,338.209304 392.268664,337.550818 C401.49151,331.417534 408.311317,326.253219 412.696824,322.099886 C419.424147,315.728715 425.06898,309.077287 429.643533,302.13662 C435.557931,293.226616 438.458984,285.239302 438.458984,278.193359 C438.458984,274.273459 437.486587,271.308443 435.597157,269.140244 C433.794398,267.071505 431.487163,266.068359 428.40918,266.068359 C422.088106,266.068359 413.300234,270.500174 402.332236,279.537089 C394.926549,285.721219 389.012587,291.548748 384.592015,297.003463 L384.386719,298.232924 C383.070156,307.202013 381.200908,316.917996 378.779547,327.3832 C376.362614,337.829265 373.45582,348.801389 370.059272,360.300544 C366.664459,371.793829 363.287906,382.250909 359.926819,391.678339 C355.925144,402.849681 352.020834,411.183073 348.149741,416.731639 C343.899704,422.82336 339.374945,426.102539 334.415039,426.102539 C326.466348,426.102539 322.614258,419.644624 322.614258,408.686523 C322.614258,402.189393 323.811185,393.978894 326.188746,384.009822 C328.545998,374.125904 331.504712,364.670436 335.062305,355.652379 C343.432179,334.28076 353.745299,316.413569 366.016532,302.064488 C366.691609,297.525402 367.368058,292.207589 368.042495,286.138843 C368.567953,280.989352 369.119282,275.134142 369.696358,268.57413 C369.837115,266.97289 370.821299,265.568353 372.27824,264.88939 L382.707452,260.029174 C384.960131,258.979383 387.637312,259.954515 388.687104,262.207193 C389.038428,262.961075 389.173945,263.797575 389.078609,264.623818 L388.92306,265.96838 C388.678646,268.412517 388.474914,270.429464 388.311813,272.019699 C388.143746,273.658352 387.97339,274.963885 387.795356,275.956386 Z M387.386674,278.680933 L386.33823,285.670559 L382.876953,285.151367 L386.376953,285.151367 C386.376953,285.545083 386.350611,285.716304 385.844714,288.878162 L382.388672,288.325195 L379.913798,285.850322 C382.406304,283.357815 384.897235,280.96801 387.386674,278.680933 Z M412.811106,337.337979 C409.938172,339.714831 407.161379,341.802259 404.479341,343.600443 L402.530273,340.693359 L402.311949,337.200175 C405.05976,337.028437 406.485692,336.949219 406.924805,336.949219 C408.957909,336.949219 410.920587,337.078785 412.811106,337.337979 Z M362.00348,325.476942 C359.092981,330.014271 356.242124,334.97251 353.45218,340.351683 C347.891273,351.073432 343.393186,361.988789 339.955805,373.100323 C337.874539,379.824415 336.174634,386.464044 334.855542,393.019531 C333.554565,399.484991 332.910156,404.40593 332.910156,407.709961 C332.910156,409.649241 333.115354,411.027544 333.42896,411.782673 C333.909219,411.533619 334.577437,410.881846 335.394434,409.635926 C336.863019,407.396334 338.813915,403.279943 341.175136,397.37689 C342.45355,394.180856 343.940231,390.122618 345.632025,385.208361 C347.329418,380.277839 348.884661,375.531317 350.297812,370.968859 C351.70822,366.415256 353.242804,361.064403 354.90056,354.918577 C356.560606,348.764258 357.79377,343.993331 358.600822,340.603795 C359.918567,335.149794 361.052769,330.107049 362.00348,325.476942 Z" id="Jot.B" stroke="#0A1B3B" stroke-width="7" fill="#0A1B3B" fill-rule="nonzero"></path>
        </g>
    </g>
</svg>